<?xml version="1.0" encoding="UTF-8" standalone="no"?>
<!-- Generator: Adobe Illustrator 23.0.3, SVG Export Plug-In . SVG Version: 6.00 Build 0)  -->

<svg
   xmlns:dc="http://purl.org/dc/elements/1.1/"
   xmlns:cc="http://creativecommons.org/ns#"
   xmlns:rdf="http://www.w3.org/1999/02/22-rdf-syntax-ns#"
   xmlns:svg="http://www.w3.org/2000/svg"
   xmlns="http://www.w3.org/2000/svg"
   xmlns:sodipodi="http://sodipodi.sourceforge.net/DTD/sodipodi-0.dtd"
   xmlns:inkscape="http://www.inkscape.org/namespaces/inkscape"
   version="1.1"
   id="Layer_1"
   x="0px"
   y="0px"
   viewBox="0 0 101.8122 22.652201"
   xml:space="preserve"
   sodipodi:docname="atmega-328p.svg"
   width="101.8122"
   height="22.652201"
   inkscape:version="0.92.2 5c3e80d, 2017-08-06"><metadata
     id="metadata55"><rdf:RDF><cc:Work
         rdf:about=""><dc:format>image/svg+xml</dc:format><dc:type
           rdf:resource="http://purl.org/dc/dcmitype/StillImage" /></cc:Work></rdf:RDF></metadata><defs
     id="defs53" /><sodipodi:namedview
     pagecolor="#ffffff"
     bordercolor="#666666"
     borderopacity="1"
     objecttolerance="10"
     gridtolerance="10"
     guidetolerance="10"
     inkscape:pageopacity="0"
     inkscape:pageshadow="2"
     inkscape:window-width="640"
     inkscape:window-height="480"
     id="namedview51"
     showgrid="false"
     inkscape:zoom="0.65555556"
     inkscape:cx="51.2561"
     inkscape:cy="11.4561"
     inkscape:window-x="0"
     inkscape:window-y="0"
     inkscape:window-maximized="0"
     inkscape:current-layer="Layer_1" /><style
     type="text/css"
     id="style46">
	.st0{fill:none;stroke:#010101;stroke-width:1.0522;}
</style><path
     class="st0"
     d="m 93.8461,22.1261 h 4.97 v -1.29 h 2.47 v -7.39 c -0.04,0 -0.08,0.01 -0.13,0.01 -1.51,0 -2.74,-0.98 -2.74,-2.18 0,-1.2 1.22,-2.18 2.74,-2.18 0.04,0 0.08,0 0.13,0.01 v -7.42 h -2.47 V 0.58609998 h -4.97 V 1.6861 h -2.17 V 0.52609998 h -4.97 V 1.6861 h -2.17 V 0.58609998 h -4.97 V 1.6861 h -1.99 V 0.58609998 h -4.97 V 1.6861 h -1.89 V 0.58609998 h -4.97 V 1.6861 h -2.08 V 0.52609998 h -4.97 V 1.6861 h -2.17 V 0.58609998 h -4.97 V 1.6861 h -2.08 V 0.52609998 h -4.97 V 1.6861 h -1.99 V 0.58609998 h -4.97 V 1.6861 h -1.99 V 0.58609998 h -4.97 V 1.6861 h -2.08 V 0.58609998 h -4.97 V 1.6861 h -1.99 V 0.52609998 h -4.97 V 1.6861 h -2.08 V 0.52609998 h -4.97 V 1.6861 h -2.08 V 0.52609998 h -4.97 V 1.6861 H 0.52609998 v 19.15 H 2.4761 v 1.23 h 4.97 v -1.23 h 2.08 v 1.23 h 4.97 v -1.23 h 2.08 v 1.23 h 4.97 v -1.23 h 1.99 v 1.29 h 4.97 v -1.29 h 2.08 v 1.29 h 4.97 v -1.29 h 1.99 v 1.29 h 4.97 v -1.29 h 1.99 v 1.23 h 4.97 v -1.23 h 2.08 v 1.29 h 4.97 v -1.29 h 2.17 v 1.23 h 4.97 v -1.23 h 2.08 v 1.29 h 4.97 v -1.29 h 1.89 v 1.29 h 4.97 v -1.29 h 1.99 v 1.29 h 4.97 v -1.29 h 2.17 v 1.23 h 4.97 v -1.23 h 2.17 z"
     id="path48"
     inkscape:connector-curvature="0"
     style="fill:none;stroke:#010101;stroke-width:1.05219996" /></svg>