<?xml version="1.0" encoding="UTF-8" standalone="no"?>
<!-- Generator: Adobe Illustrator 23.0.3, SVG Export Plug-In . SVG Version: 6.00 Build 0)  -->

<svg
   xmlns:dc="http://purl.org/dc/elements/1.1/"
   xmlns:cc="http://creativecommons.org/ns#"
   xmlns:rdf="http://www.w3.org/1999/02/22-rdf-syntax-ns#"
   xmlns:svg="http://www.w3.org/2000/svg"
   xmlns="http://www.w3.org/2000/svg"
   xmlns:sodipodi="http://sodipodi.sourceforge.net/DTD/sodipodi-0.dtd"
   xmlns:inkscape="http://www.inkscape.org/namespaces/inkscape"
   version="1.1"
   id="Layer_1"
   x="0px"
   y="0px"
   viewBox="0 0 281.79999 242.72"
   xml:space="preserve"
   sodipodi:docname="radxa-rock.svg"
   width="281.79999"
   height="242.72"
   inkscape:version="0.92.2 5c3e80d, 2017-08-06"><metadata
     id="metadata88"><rdf:RDF><cc:Work
         rdf:about=""><dc:format>image/svg+xml</dc:format><dc:type
           rdf:resource="http://purl.org/dc/dcmitype/StillImage" /></cc:Work></rdf:RDF></metadata><defs
     id="defs86" /><sodipodi:namedview
     pagecolor="#ffffff"
     bordercolor="#666666"
     borderopacity="1"
     objecttolerance="10"
     gridtolerance="10"
     guidetolerance="10"
     inkscape:pageopacity="0"
     inkscape:pageshadow="2"
     inkscape:window-width="640"
     inkscape:window-height="480"
     id="namedview84"
     showgrid="false"
     inkscape:zoom="0.65555556"
     inkscape:cx="141.14"
     inkscape:cy="121.88"
     inkscape:window-x="0"
     inkscape:window-y="0"
     inkscape:window-maximized="0"
     inkscape:current-layer="Layer_1" /><style
     type="text/css"
     id="style79">
	.st0{fill:#FFFFFF;stroke:#010101;stroke-miterlimit:10;}
</style><path
     class="st0"
     d="M 275.77,236.91 H 154.96 v 5.31 H 123.3 v -5.31 H 4.35 c -2.12,0 -3.85,-1.73 -3.85,-3.85 V 17.85 C 0.5,15.73 2.23,14 4.35,14 H 22.19 V 8.81 h 17.4 V 14 h 74.3 v -2.92 h 40.6 l 0.08,2.92 h 10.42 l 0.16,-6.6 h 2.66 V 0.5 h 21.63 l -0.16,6.9 h 2.98 l -0.31,6.6 h 14.89 l -0.05,-5.25 h 14 V 14 h 15.15 V 9.12 l 22.05,0.1 v 4.77 h 17.77 c 2.12,0 3.85,1.73 3.85,3.85 v 185.18 h 1.69 v 7.99 h -1.69 v 22.04 c 0.01,2.13 -1.72,3.86 -3.84,3.86 z"
     id="path81"
     inkscape:connector-curvature="0"
     style="fill:#ffffff;stroke:#010101;stroke-miterlimit:10" /></svg>