<?xml version="1.0" encoding="UTF-8" standalone="no"?>
<!-- Generator: Adobe Illustrator 23.0.3, SVG Export Plug-In . SVG Version: 6.00 Build 0)  -->

<svg
   xmlns:dc="http://purl.org/dc/elements/1.1/"
   xmlns:cc="http://creativecommons.org/ns#"
   xmlns:rdf="http://www.w3.org/1999/02/22-rdf-syntax-ns#"
   xmlns:svg="http://www.w3.org/2000/svg"
   xmlns="http://www.w3.org/2000/svg"
   xmlns:sodipodi="http://sodipodi.sourceforge.net/DTD/sodipodi-0.dtd"
   xmlns:inkscape="http://www.inkscape.org/namespaces/inkscape"
   version="1.1"
   id="Layer_1"
   x="0px"
   y="0px"
   viewBox="0 0 265.82712 176.18005"
   xml:space="preserve"
   sodipodi:docname="rpi-1b.svg"
   width="265.82712"
   height="176.18005"
   inkscape:version="0.92.2 5c3e80d, 2017-08-06"><metadata
     id="metadata211"><rdf:RDF><cc:Work
         rdf:about=""><dc:format>image/svg+xml</dc:format><dc:type
           rdf:resource="http://purl.org/dc/dcmitype/StillImage" /></cc:Work></rdf:RDF></metadata><defs
     id="defs209" /><sodipodi:namedview
     pagecolor="#ffffff"
     bordercolor="#666666"
     borderopacity="1"
     objecttolerance="10"
     gridtolerance="10"
     guidetolerance="10"
     inkscape:pageopacity="0"
     inkscape:pageshadow="2"
     inkscape:window-width="640"
     inkscape:window-height="480"
     id="namedview207"
     showgrid="false"
     inkscape:zoom="0.65555556"
     inkscape:cx="133.24"
     inkscape:cy="88.7"
     inkscape:window-x="0"
     inkscape:window-y="0"
     inkscape:window-maximized="0"
     inkscape:current-layer="Layer_1" /><style
     type="text/css"
     id="style90">
	.st0{fill:none;stroke:#000000;stroke-linecap:round;stroke-linejoin:round;stroke-miterlimit:10;}
	.st1{fill-rule:evenodd;clip-rule:evenodd;}
</style><g
     id="g204"
     transform="translate(-46.76,-92.51995)"><polyline
       class="st0"
       points="174.08,93.02 174.02,93.02 173.6,93.02 173.54,93.02 173.54,93.08 173.36,93.08 173.3,93.14    173.18,93.14 173.18,93.2 173.06,93.2 173.06,93.26 172.94,93.26 172.94,93.32 172.88,93.32 172.82,93.38 172.76,93.38    172.76,93.44 172.7,93.44 172.7,93.5 172.64,93.5 172.64,93.56 172.58,93.56 172.46,93.68 172.46,93.74 172.4,93.74 172.4,93.8    172.34,93.8 172.34,93.86 172.28,93.86 172.28,93.92 172.22,93.98 172.22,94.04 172.16,94.04 172.16,94.16 172.1,94.16    172.1,94.28 172.04,94.28 172.04,94.4 171.98,94.46 171.98,94.64 171.92,94.64 171.92,94.7 171.92,95.12 171.92,95.18  "
       id="polyline92"
       style="fill:none;stroke:#000000;stroke-linecap:round;stroke-linejoin:round;stroke-miterlimit:10" /><polyline
       class="st0"
       points="197.12,95.18 197.06,95.12 197.06,94.7 197.06,94.64 197,94.64 197,94.46 196.94,94.4 196.94,94.28    196.88,94.28 196.88,94.16 196.82,94.16 196.82,94.04 196.76,94.04 196.76,93.98 196.7,93.92 196.7,93.86 196.64,93.86    196.64,93.8 196.58,93.8 196.58,93.74 196.52,93.74 196.52,93.68 196.4,93.56 196.34,93.56 196.34,93.5 196.28,93.5 196.28,93.44    196.22,93.44 196.22,93.38 196.16,93.38 196.1,93.32 196.04,93.32 196.04,93.26 195.92,93.26 195.92,93.2 195.8,93.2 195.8,93.14    195.68,93.14 195.62,93.08 195.44,93.08 195.44,93.02 195.38,93.02 195.02,93.02 194.96,93.02  "
       id="polyline94"
       style="fill:none;stroke:#000000;stroke-linecap:round;stroke-linejoin:round;stroke-miterlimit:10" /><path
       class="st0"
       d="M 197.12,95.18"
       id="path96"
       inkscape:connector-curvature="0"
       style="fill:none;stroke:#000000;stroke-linecap:round;stroke-linejoin:round;stroke-miterlimit:10" /><path
       class="st0"
       d="M 171.92,95.18"
       id="path98"
       inkscape:connector-curvature="0"
       style="fill:none;stroke:#000000;stroke-linecap:round;stroke-linejoin:round;stroke-miterlimit:10" /><path
       class="st0"
       d="m 243.68,103.52 -0.06,-0.12 c 0.02,-0.21 -0.21,-0.44 -0.42,-0.42 l -0.12,-0.06"
       id="path100"
       inkscape:connector-curvature="0"
       style="fill:none;stroke:#000000;stroke-linecap:round;stroke-linejoin:round;stroke-miterlimit:10" /><polyline
       class="st0"
       points="224.36,102.92 224.3,102.98 224.18,102.98 224.06,103.04 224,103.1 223.94,103.22 223.88,103.28    223.82,103.4 223.82,103.52  "
       id="polyline102"
       style="fill:none;stroke:#000000;stroke-linecap:round;stroke-linejoin:round;stroke-miterlimit:10" /><polyline
       class="st0"
       points="243.68,103.52 243.68,112.88 250.76,112.88  "
       id="polyline104"
       style="fill:none;stroke:#000000;stroke-linecap:round;stroke-linejoin:round;stroke-miterlimit:10" /><polyline
       class="st0"
       points="223.82,103.52 223.82,112.88 216.74,112.88  "
       id="polyline106"
       style="fill:none;stroke:#000000;stroke-linecap:round;stroke-linejoin:round;stroke-miterlimit:10" /><path
       class="st0"
       d="M 171.92,95.18"
       id="path108"
       inkscape:connector-curvature="0"
       style="fill:none;stroke:#000000;stroke-linecap:round;stroke-linejoin:round;stroke-miterlimit:10" /><polyline
       class="st0"
       points="292.22,112.88 292.22,160.7 312.08,160.7 312.08,197.84  "
       id="polyline110"
       style="fill:none;stroke:#000000;stroke-linecap:round;stroke-linejoin:round;stroke-miterlimit:10" /><polyline
       class="st0"
       points="215.48,265.88 196.28,265.88 196.28,267.32 153.8,267.32 153.8,265.88 49.58,265.88  "
       id="polyline112"
       style="fill:none;stroke:#000000;stroke-linecap:round;stroke-linejoin:round;stroke-miterlimit:10" /><line
       class="st0"
       x1="222.86"
       y1="265.88"
       x2="292.22"
       y2="265.88"
       id="line114"
       style="fill:none;stroke:#000000;stroke-linecap:round;stroke-linejoin:round;stroke-miterlimit:10" /><polyline
       class="st0"
       points="49.58,112.88 49.58,233.3 49.58,265.88  "
       id="polyline116"
       style="fill:none;stroke:#000000;stroke-linecap:round;stroke-linejoin:round;stroke-miterlimit:10" /><path
       class="st0"
       d="M 49.58,265.88"
       id="path118"
       inkscape:connector-curvature="0"
       style="fill:none;stroke:#000000;stroke-linecap:round;stroke-linejoin:round;stroke-miterlimit:10" /><line
       class="st0"
       x1="292.22"
       y1="112.88"
       x2="250.75999"
       y2="112.88"
       id="line120"
       style="fill:none;stroke:#000000;stroke-linecap:round;stroke-linejoin:round;stroke-miterlimit:10" /><polyline
       class="st0"
       points="216.74,112.88 197.12,112.88 197.12,95.18 197,95.18  "
       id="polyline122"
       style="fill:none;stroke:#000000;stroke-linecap:round;stroke-linejoin:round;stroke-miterlimit:10" /><polyline
       class="st0"
       points="49.58,112.88 171.92,112.88 171.92,95.18  "
       id="polyline124"
       style="fill:none;stroke:#000000;stroke-linecap:round;stroke-linejoin:round;stroke-miterlimit:10" /><line
       class="st0"
       x1="215.48"
       y1="265.88"
       x2="222.86"
       y2="265.88"
       id="line126"
       style="fill:none;stroke:#000000;stroke-linecap:round;stroke-linejoin:round;stroke-miterlimit:10" /><polyline
       class="st0"
       points="194.96,93.02 194.9,93.02 174.14,93.02 174.08,93.02  "
       id="polyline128"
       style="fill:none;stroke:#000000;stroke-linecap:round;stroke-linejoin:round;stroke-miterlimit:10" /><path
       class="st0"
       d="M 312.08,197.84"
       id="path130"
       inkscape:connector-curvature="0"
       style="fill:none;stroke:#000000;stroke-linecap:round;stroke-linejoin:round;stroke-miterlimit:10" /><path
       class="st0"
       d="M 216.74,112.88"
       id="path132"
       inkscape:connector-curvature="0"
       style="fill:none;stroke:#000000;stroke-linecap:round;stroke-linejoin:round;stroke-miterlimit:10" /><path
       class="st0"
       d="M 216.74,112.88"
       id="path134"
       inkscape:connector-curvature="0"
       style="fill:none;stroke:#000000;stroke-linecap:round;stroke-linejoin:round;stroke-miterlimit:10" /><path
       class="st0"
       d="M 250.76,112.88"
       id="path136"
       inkscape:connector-curvature="0"
       style="fill:none;stroke:#000000;stroke-linecap:round;stroke-linejoin:round;stroke-miterlimit:10" /><path
       class="st0"
       d="M 250.76,112.88"
       id="path138"
       inkscape:connector-curvature="0"
       style="fill:none;stroke:#000000;stroke-linecap:round;stroke-linejoin:round;stroke-miterlimit:10" /><polyline
       class="st0"
       points="233.72,102.92 232.34,102.92 224.42,102.92 224.36,102.92  "
       id="polyline140"
       style="fill:none;stroke:#000000;stroke-linecap:round;stroke-linejoin:round;stroke-miterlimit:10" /><polyline
       class="st0"
       points="243.08,102.92 242.9,102.92 235.16,102.92 233.72,102.92  "
       id="polyline142"
       style="fill:none;stroke:#000000;stroke-linecap:round;stroke-linejoin:round;stroke-miterlimit:10" /><path
       class="st0"
       d="M 296.48,259.52"
       id="path144"
       inkscape:connector-curvature="0"
       style="fill:none;stroke:#000000;stroke-linecap:round;stroke-linejoin:round;stroke-miterlimit:10" /><path
       class="st0"
       d="M 296.48,215.96"
       id="path146"
       inkscape:connector-curvature="0"
       style="fill:none;stroke:#000000;stroke-linecap:round;stroke-linejoin:round;stroke-miterlimit:10" /><line
       class="st0"
       x1="296.48001"
       y1="215.96001"
       x2="296.48001"
       y2="218.24001"
       id="line148"
       style="fill:none;stroke:#000000;stroke-linecap:round;stroke-linejoin:round;stroke-miterlimit:10" /><path
       class="st0"
       d="M 296.48,218.24"
       id="path150"
       inkscape:connector-curvature="0"
       style="fill:none;stroke:#000000;stroke-linecap:round;stroke-linejoin:round;stroke-miterlimit:10" /><path
       class="st0"
       d="M 296.48,226.16"
       id="path152"
       inkscape:connector-curvature="0"
       style="fill:none;stroke:#000000;stroke-linecap:round;stroke-linejoin:round;stroke-miterlimit:10" /><line
       class="st0"
       x1="296.48001"
       y1="226.16"
       x2="296.48001"
       y2="249.25999"
       id="line154"
       style="fill:none;stroke:#000000;stroke-linecap:round;stroke-linejoin:round;stroke-miterlimit:10" /><path
       class="st0"
       d="M 296.48,249.26"
       id="path156"
       inkscape:connector-curvature="0"
       style="fill:none;stroke:#000000;stroke-linecap:round;stroke-linejoin:round;stroke-miterlimit:10" /><path
       class="st0"
       d="M 296.48,257.18"
       id="path158"
       inkscape:connector-curvature="0"
       style="fill:none;stroke:#000000;stroke-linecap:round;stroke-linejoin:round;stroke-miterlimit:10" /><line
       class="st0"
       x1="296.48001"
       y1="259.51999"
       x2="296.48001"
       y2="257.17999"
       id="line160"
       style="fill:none;stroke:#000000;stroke-linecap:round;stroke-linejoin:round;stroke-miterlimit:10" /><line
       class="st0"
       x1="296.48001"
       y1="218.24001"
       x2="296.48001"
       y2="226.16"
       id="line162"
       style="fill:none;stroke:#000000;stroke-linecap:round;stroke-linejoin:round;stroke-miterlimit:10" /><line
       class="st0"
       x1="296.48001"
       y1="249.25999"
       x2="296.48001"
       y2="257.17999"
       id="line164"
       style="fill:none;stroke:#000000;stroke-linecap:round;stroke-linejoin:round;stroke-miterlimit:10" /><path
       class="st0"
       d="M 296.48,215.24"
       id="path166"
       inkscape:connector-curvature="0"
       style="fill:none;stroke:#000000;stroke-linecap:round;stroke-linejoin:round;stroke-miterlimit:10" /><polyline
       class="st0"
       points="296.48,215.96 296.48,215.24 292.22,215.24 292.22,197.84 312.08,197.84  "
       id="polyline168"
       style="fill:none;stroke:#000000;stroke-linecap:round;stroke-linejoin:round;stroke-miterlimit:10" /><path
       class="st0"
       d="M 296.48,260.24"
       id="path170"
       inkscape:connector-curvature="0"
       style="fill:none;stroke:#000000;stroke-linecap:round;stroke-linejoin:round;stroke-miterlimit:10" /><polyline
       class="st0"
       points="296.48,259.52 296.48,260.24 292.22,260.24 292.22,265.88  "
       id="polyline172"
       style="fill:none;stroke:#000000;stroke-linecap:round;stroke-linejoin:round;stroke-miterlimit:10" /><path
       class="st0"
       d="M 278.06,151.16"
       id="path174"
       inkscape:connector-curvature="0"
       style="fill:none;stroke:#000000;stroke-linecap:round;stroke-linejoin:round;stroke-miterlimit:10" /><path
       class="st0"
       d="M 292.22,156.02"
       id="path176"
       inkscape:connector-curvature="0"
       style="fill:none;stroke:#000000;stroke-linecap:round;stroke-linejoin:round;stroke-miterlimit:10" /><path
       class="st0"
       d="M 46.76,265.88"
       id="path178"
       inkscape:connector-curvature="0"
       style="fill:none;stroke:#000000;stroke-linecap:round;stroke-linejoin:round;stroke-miterlimit:10" /><path
       class="st0"
       d="M 46.76,112.88"
       id="path180"
       inkscape:connector-curvature="0"
       style="fill:none;stroke:#000000;stroke-linecap:round;stroke-linejoin:round;stroke-miterlimit:10" /><path
       class="st0"
       d="M 292.22,268.7"
       id="path182"
       inkscape:connector-curvature="0"
       style="fill:none;stroke:#000000;stroke-linecap:round;stroke-linejoin:round;stroke-miterlimit:10" /><path
       class="st0"
       d="M 49.58,268.7"
       id="path184"
       inkscape:connector-curvature="0"
       style="fill:none;stroke:#000000;stroke-linecap:round;stroke-linejoin:round;stroke-miterlimit:10" /><path
       class="st0"
       d="M 49.58,268.7"
       id="path186"
       inkscape:connector-curvature="0"
       style="fill:none;stroke:#000000;stroke-linecap:round;stroke-linejoin:round;stroke-miterlimit:10" /><path
       class="st0"
       d="M 46.76,265.88"
       id="path188"
       inkscape:connector-curvature="0"
       style="fill:none;stroke:#000000;stroke-linecap:round;stroke-linejoin:round;stroke-miterlimit:10" /><path
       class="st0"
       d="M 312.08,200.66"
       id="path190"
       inkscape:connector-curvature="0"
       style="fill:none;stroke:#000000;stroke-linecap:round;stroke-linejoin:round;stroke-miterlimit:10" /><path
       class="st0"
       d="M 258.26,112.88"
       id="path192"
       inkscape:connector-curvature="0"
       style="fill:none;stroke:#000000;stroke-linecap:round;stroke-linejoin:round;stroke-miterlimit:10" /><path
       class="st1"
       d="M 292.22,156.02"
       id="path194"
       inkscape:connector-curvature="0"
       style="clip-rule:evenodd;fill-rule:evenodd" /><path
       class="st0"
       d="M 292.22,156.02"
       id="path196"
       inkscape:connector-curvature="0"
       style="fill:none;stroke:#000000;stroke-linecap:round;stroke-linejoin:round;stroke-miterlimit:10" /><path
       class="st1"
       d="M 258.26,112.88"
       id="path198"
       inkscape:connector-curvature="0"
       style="clip-rule:evenodd;fill-rule:evenodd" /><path
       class="st0"
       d="M 258.26,112.88"
       id="path200"
       inkscape:connector-curvature="0"
       style="fill:none;stroke:#000000;stroke-linecap:round;stroke-linejoin:round;stroke-miterlimit:10" /><path
       class="st0"
       d="M 49.64,226.85"
       id="path202"
       inkscape:connector-curvature="0"
       style="fill:none;stroke:#000000;stroke-linecap:round;stroke-linejoin:round;stroke-miterlimit:10" /></g></svg>