<?xml version="1.0" encoding="UTF-8" standalone="no"?>
<!-- Generator: Adobe Illustrator 23.0.3, SVG Export Plug-In . SVG Version: 6.00 Build 0)  -->

<svg
   xmlns:dc="http://purl.org/dc/elements/1.1/"
   xmlns:cc="http://creativecommons.org/ns#"
   xmlns:rdf="http://www.w3.org/1999/02/22-rdf-syntax-ns#"
   xmlns:svg="http://www.w3.org/2000/svg"
   xmlns="http://www.w3.org/2000/svg"
   xmlns:sodipodi="http://sodipodi.sourceforge.net/DTD/sodipodi-0.dtd"
   xmlns:inkscape="http://www.inkscape.org/namespaces/inkscape"
   version="1.1"
   id="Layer_1"
   x="0px"
   y="0px"
   viewBox="0 0 242.98 164.42999"
   xml:space="preserve"
   sodipodi:docname="rpi-2b.svg"
   width="242.98"
   height="164.42999"
   inkscape:version="0.92.2 5c3e80d, 2017-08-06"><metadata
     id="metadata222"><rdf:RDF><cc:Work
         rdf:about=""><dc:format>image/svg+xml</dc:format><dc:type
           rdf:resource="http://purl.org/dc/dcmitype/StillImage" /></cc:Work></rdf:RDF></metadata><defs
     id="defs220" /><sodipodi:namedview
     pagecolor="#ffffff"
     bordercolor="#666666"
     borderopacity="1"
     objecttolerance="10"
     gridtolerance="10"
     guidetolerance="10"
     inkscape:pageopacity="0"
     inkscape:pageshadow="2"
     inkscape:window-width="640"
     inkscape:window-height="480"
     id="namedview218"
     showgrid="false"
     inkscape:zoom="0.65555556"
     inkscape:cx="122.17"
     inkscape:cy="82.35"
     inkscape:window-x="0"
     inkscape:window-y="0"
     inkscape:window-maximized="0"
     inkscape:current-layer="Layer_1" /><style
     type="text/css"
     id="style213">
	.st0{fill:none;stroke:#000000;stroke-miterlimit:10;}
</style><path
     class="st0"
     d="m 231.51,156.85 h -73.43 v 7.08 h -17.22 v -7.08 H 110.2 l 0.12,5.01 H 69.4 v -5.01 H 42.36 v 3.75 H 18.58 v -3.75 H 4.71 c -2.32,0 -4.21,-1.89 -4.21,-4.21 V 4.71 C 0.5,2.39 2.39,0.5 4.71,0.5 H 231.5 c 2.32,0 4.21,1.89 4.21,4.21 V 8.9 h 6.77 v 36 h -6.77 v 14.14 h 6.77 v 35.58 l -6.77,0.16 v 12 l 6.77,-0.09 v 42.77 h -6.77 v 3.16 c 0.01,2.33 -1.89,4.23 -4.2,4.23 z"
     id="path215"
     inkscape:connector-curvature="0"
     style="fill:none;stroke:#000000;stroke-miterlimit:10" /></svg>