<?xml version="1.0" encoding="UTF-8" standalone="no"?>
<!-- Generator: Adobe Illustrator 23.0.3, SVG Export Plug-In . SVG Version: 6.00 Build 0)  -->

<svg
   xmlns:dc="http://purl.org/dc/elements/1.1/"
   xmlns:cc="http://creativecommons.org/ns#"
   xmlns:rdf="http://www.w3.org/1999/02/22-rdf-syntax-ns#"
   xmlns:svg="http://www.w3.org/2000/svg"
   xmlns="http://www.w3.org/2000/svg"
   xmlns:sodipodi="http://sodipodi.sourceforge.net/DTD/sodipodi-0.dtd"
   xmlns:inkscape="http://www.inkscape.org/namespaces/inkscape"
   version="1.1"
   id="Layer_1"
   x="0px"
   y="0px"
   viewBox="0 0 317.79999 262.69"
   xml:space="preserve"
   sodipodi:docname="udoo-quad.svg"
   width="317.79999"
   height="262.69"
   inkscape:version="0.92.2 5c3e80d, 2017-08-06"><metadata
     id="metadata244"><rdf:RDF><cc:Work
         rdf:about=""><dc:format>image/svg+xml</dc:format><dc:type
           rdf:resource="http://purl.org/dc/dcmitype/StillImage" /></cc:Work></rdf:RDF></metadata><defs
     id="defs242" /><sodipodi:namedview
     pagecolor="#ffffff"
     bordercolor="#666666"
     borderopacity="1"
     objecttolerance="10"
     gridtolerance="10"
     guidetolerance="10"
     inkscape:pageopacity="0"
     inkscape:pageshadow="2"
     inkscape:window-width="640"
     inkscape:window-height="480"
     id="namedview240"
     showgrid="false"
     inkscape:zoom="0.65555556"
     inkscape:cx="159.32"
     inkscape:cy="131.87"
     inkscape:window-x="0"
     inkscape:window-y="0"
     inkscape:window-maximized="0"
     inkscape:current-layer="Layer_1" /><style
     type="text/css"
     id="style235">
	.st0{fill:#FFFFFF;stroke:#000000;stroke-miterlimit:10;}
</style><polygon
     class="st0"
     points="315.79,311.37 298.55,311.37 298.55,304.8 285.86,304.8 285.72,311.37 268.47,311.37 268.47,304.8 256.5,304.8 256.36,311.37 218.87,311.37 218.87,304.8 213.45,304.8 213.45,311.37 165.28,311.37 165.28,304.8 160.43,304.8 160.43,311.37 118.81,311.37 118.95,304.8 105.13,304.8 105.13,311.37 82.18,311.37 82.04,304.8 68.92,304.8 68.92,311.37 45.98,311.37 45.98,304.8 22.92,304.8 22.92,275.46 21.18,275.46 21.18,265.34 22.92,265.34 22.92,248.66 21.18,248.66 21.18,238.97 22.92,238.97 22.92,58.59 27.88,58.59 27.88,49.68 55.24,49.68 55.24,58.59 337.98,58.59 337.98,304.8 315.79,304.8 "
     id="polygon237"
     style="fill:#ffffff;stroke:#000000;stroke-miterlimit:10"
     transform="translate(-20.68,-49.18)" /></svg>