<?xml version="1.0" encoding="UTF-8" standalone="no"?>
<!-- Generator: Adobe Illustrator 23.0.3, SVG Export Plug-In . SVG Version: 6.00 Build 0)  -->

<svg
   xmlns:dc="http://purl.org/dc/elements/1.1/"
   xmlns:cc="http://creativecommons.org/ns#"
   xmlns:rdf="http://www.w3.org/1999/02/22-rdf-syntax-ns#"
   xmlns:svg="http://www.w3.org/2000/svg"
   xmlns="http://www.w3.org/2000/svg"
   xmlns:sodipodi="http://sodipodi.sourceforge.net/DTD/sodipodi-0.dtd"
   xmlns:inkscape="http://www.inkscape.org/namespaces/inkscape"
   version="1.1"
   id="Layer_1"
   x="0px"
   y="0px"
   viewBox="0 0 173.30768 117.843"
   xml:space="preserve"
   sodipodi:docname="gear-kit.svg"
   width="173.30768"
   height="117.843"
   inkscape:version="0.92.2 5c3e80d, 2017-08-06"><metadata
     id="metadata66"><rdf:RDF><cc:Work
         rdf:about=""><dc:format>image/svg+xml</dc:format><dc:type
           rdf:resource="http://purl.org/dc/dcmitype/StillImage" /></cc:Work></rdf:RDF></metadata><defs
     id="defs64" /><sodipodi:namedview
     pagecolor="#ffffff"
     bordercolor="#666666"
     borderopacity="1"
     objecttolerance="10"
     gridtolerance="10"
     guidetolerance="10"
     inkscape:pageopacity="0"
     inkscape:pageshadow="2"
     inkscape:window-width="640"
     inkscape:window-height="480"
     id="namedview62"
     showgrid="false"
     inkscape:zoom="0.65555556"
     inkscape:cx="87.816176"
     inkscape:cy="58.35"
     inkscape:window-x="0"
     inkscape:window-y="0"
     inkscape:window-maximized="0"
     inkscape:current-layer="Layer_1" /><style
     type="text/css"
     id="style49">
	.st0{fill:#010101;}
</style><g
     transform="matrix(0.1,0,0,-0.1,-128.18382,749.493)"
     id="g59"><path
       class="st0"
       d="m 2428.92,6316.5 c 1.9,0 29.12,2.71 34.54,3.39 l 5.55,0.81 1.63,21.26 c 2.98,39.28 2.3,36.57 8.8,38.33 2.98,0.81 10.97,3.66 17.47,6.23 l 12.05,4.88 20.59,-20.59 20.59,-20.45 16.52,11.65 c 9.21,6.37 16.39,12.32 16.12,13.27 -0.41,0.81 -5.96,12.6 -12.46,26.14 l -11.65,24.65 10.97,13.14 c 5.96,7.31 10.84,13.68 10.84,14.36 0,1.9 3.66,1.22 29.53,-5.69 13.95,-3.66 26.28,-6.77 27.36,-6.77 1.22,0.14 5.15,6.91 10.29,18.15 l 8.4,18.15 -24.24,16.66 c -17.61,12.19 -24.11,17.34 -23.57,18.83 0.54,1.08 1.76,8.13 2.98,15.58 1.08,7.45 2.3,14.76 2.57,16.25 0.41,2.44 4.33,3.79 28.31,10.16 l 27.77,7.45 v 4.06 c 0,2.17 -0.68,11.51 -1.49,20.59 l -1.63,16.39 -12.33,0.95 c -6.77,0.54 -19.91,1.63 -29.12,2.57 l -16.66,1.49 -5.01,14.22 c -2.84,7.86 -5.69,15.44 -6.5,16.93 -1.35,2.44 0.81,5.15 18.69,23.7 10.97,11.51 19.77,21.67 19.5,22.62 -0.41,1.22 -19.91,29.26 -21.81,31.42 -0.27,0.27 -12.46,-5.15 -26.95,-12.05 l -26.55,-12.46 -7.04,6.64 c -3.93,3.66 -10.29,9.07 -14.22,11.92 -5.82,4.06 -7.04,5.69 -6.5,7.99 0.41,1.62 3.79,14.36 7.45,28.31 l 6.77,25.46 -15.17,7.04 c -8.4,3.93 -16.66,7.72 -18.56,8.53 -3.25,1.49 -3.93,0.68 -19.91,-22.35 l -16.66,-23.97 -13.81,2.57 c -7.72,1.35 -15.98,2.84 -18.56,3.39 l -4.6,0.95 -7.04,26 c -3.93,14.36 -7.45,26.95 -7.86,27.9 -0.54,1.49 -4.2,1.35 -20.05,-0.14 -10.7,-0.95 -19.91,-2.17 -20.32,-2.71 -0.54,-0.54 -1.9,-13.41 -3.12,-28.58 -1.22,-15.3 -2.57,-28.17 -3.11,-28.71 -0.68,-0.41 -5.28,-2.3 -10.56,-3.93 -5.15,-1.76 -12.6,-4.47 -16.39,-6.09 l -6.91,-3.12 -20.18,20.18 c -11.11,11.11 -20.72,20.18 -21.54,20.18 -1.08,0 -29.53,-19.37 -32.91,-22.35 -0.27,-0.14 5.15,-12.05 11.92,-26.41 6.64,-14.22 12.19,-26.41 12.19,-26.95 0,-0.54 -1.9,-2.71 -4.2,-5.01 -2.3,-2.17 -7.58,-8.4 -11.65,-13.81 -6.37,-8.13 -8.13,-9.62 -10.43,-8.94 -12.46,4.06 -53.09,13.81 -53.91,13 -1.22,-1.35 -15.98,-33.72 -15.98,-35.21 0,-0.68 10.29,-8.4 23.02,-17.07 12.6,-8.67 23.16,-16.25 23.57,-16.79 0.27,-0.54 -0.68,-6.5 -2.03,-13.14 -1.35,-6.77 -2.57,-14.49 -2.57,-17.2 0,-2.71 -0.68,-5.42 -1.49,-5.96 -0.81,-0.54 -13.41,-4.06 -27.9,-7.99 -14.49,-3.93 -26.68,-7.58 -27.09,-7.99 -0.54,-0.41 0,-9.62 0.95,-20.45 l 1.76,-19.5 5.55,-0.68 c 2.98,-0.41 13.81,-1.35 23.84,-2.17 31.02,-2.3 29.26,-1.76 31.29,-9.21 0.95,-3.52 3.66,-11.24 6.23,-17.2 l 4.47,-10.83 -20.32,-20.32 c -11.11,-11.24 -20.32,-20.72 -20.32,-21.26 0,-0.54 5.15,-8.26 11.51,-17.2 l 11.51,-16.25 26.14,12.6 26.14,12.6 6.09,-5.28 c 4.47,-3.93 19.1,-15.58 22.62,-18.15 0.27,-0.14 -2.98,-12.87 -7.04,-28.44 -4.2,-15.44 -7.45,-28.31 -7.18,-28.44 1.9,-1.9 36.84,-16.66 37.52,-15.85 0.54,0.54 7.86,10.97 16.25,23.02 8.26,12.19 15.71,22.35 16.39,22.89 0.68,0.41 5.42,-0.14 10.43,-1.35 5.01,-1.08 12.87,-2.44 17.47,-2.98 l 8.53,-0.95 1.76,-6.23 c 1.08,-3.39 4.6,-16.12 7.86,-28.31 3.28,-12.09 6.39,-21.97 6.8,-21.97 z m -101.99,140.58 c -22.62,21.81 -36.7,47.81 -42.53,78.42 -3.25,17.34 -2.03,45.24 2.84,62.57 14.63,53.23 57.16,92.64 111.74,103.75 15.71,3.25 47.4,2.3 62.84,-1.9 31.02,-8.26 56.75,-25.06 76.66,-49.84 20.59,-25.6 31.15,-55.8 31.15,-89.12 0,-16.93 -2.44,-31.83 -7.45,-46.59 -17.07,-50.38 -61.63,-87.63 -114.45,-95.62 -44.54,-6.9 -88.29,7.05 -120.8,38.33 z"
       id="path51"
       inkscape:connector-curvature="0"
       style="fill:#010101" /><path
       class="st0"
       d="m 1645.94,6460.88 c 13.68,1.08 25.33,2.57 25.73,3.39 0.54,0.68 1.63,14.49 2.57,30.75 0.81,16.12 1.9,32.78 2.44,36.84 l 0.68,7.58 8.67,2.3 c 4.74,1.22 15.17,4.74 23.02,7.86 l 14.36,5.55 7.04,-6.64 c 30.74,-29.66 48.76,-46.46 49.84,-46.46 2.03,0 43.07,28.71 43.07,30.07 0,0.81 -7.72,16.52 -17.07,35.08 l -17.2,33.59 9.07,9.75 c 5.01,5.28 11.92,13.41 15.3,17.88 3.39,4.6 6.23,8.53 6.5,8.8 0.27,0.27 16.39,-3.79 36.03,-9.07 19.64,-5.15 36.84,-9.62 38.19,-9.89 1.9,-0.27 4.6,4.33 13.14,23.16 5.96,13 10.84,23.84 10.84,23.97 0,0.27 -14.63,10.29 -32.51,22.21 -17.88,12.05 -32.51,22.21 -32.51,22.48 0,0.41 0.95,4.88 2.17,10.02 1.08,5.01 2.84,15.58 3.66,23.3 l 1.63,13.95 37.25,9.62 c 32.37,8.4 37.25,9.89 37.25,12.19 0,2.84 -5.01,49.84 -5.28,50.25 -0.14,0.14 -17.61,1.9 -38.74,3.79 -21.13,1.89 -38.74,3.79 -39.28,4.06 -0.54,0.27 -2.57,5.69 -4.6,11.78 -2.03,6.23 -5.96,16.12 -8.8,22.08 l -5.28,10.83 27.09,27.22 26.95,27.09 -16.25,21.94 -16.25,21.81 -21.4,-9.89 c -11.78,-5.42 -27.49,-12.73 -34.94,-16.12 l -13.54,-6.09 -8.8,7.72 c -4.88,4.33 -13.54,11.38 -19.23,15.71 -5.82,4.2 -10.56,8.13 -10.56,8.67 0,0.41 4.06,16.79 8.94,36.43 5.01,19.5 8.8,35.89 8.4,36.3 -0.95,0.81 -43.61,20.45 -47,21.54 -2.17,0.68 -4.88,-2.44 -15.17,-17.2 -6.91,-9.89 -16.66,-23.84 -21.67,-31.02 l -9.21,-13 -9.48,2.3 c -5.15,1.35 -14.76,3.12 -21.4,4.06 -6.5,0.81 -13.27,1.9 -14.9,2.17 -3.25,0.68 -3.66,1.49 -17.88,49.84 -3.79,12.46 -7.04,23.16 -7.45,23.57 -1.35,1.35 -52.69,-3.52 -53.63,-5.15 -0.54,-0.81 -1.76,-14.9 -2.71,-31.42 -0.95,-16.39 -2.03,-32.91 -2.57,-36.57 l -0.81,-6.77 -10.84,-3.12 c -5.96,-1.76 -15.44,-5.15 -20.99,-7.45 -5.55,-2.44 -11.11,-4.47 -12.33,-4.6 -1.22,0 -14.9,11.92 -30.2,26.68 l -28.04,26.68 -17.74,-12.19 c -9.75,-6.64 -19.64,-13.68 -21.94,-15.44 l -4.2,-3.25 17.47,-34.13 17.34,-34 -6.91,-7.72 c -5.15,-5.69 -21.81,-26.41 -23.84,-29.66 -0.14,-0.27 -17.2,4.2 -37.92,9.75 -20.86,5.55 -38.33,9.62 -38.74,9.07 -2.44,-2.71 -21.54,-46.86 -20.59,-47.67 0.54,-0.54 15.3,-10.56 32.64,-22.35 27.63,-18.56 31.56,-21.67 30.88,-24.24 -1.76,-6.5 -5.01,-25.19 -5.96,-34.54 l -0.95,-10.02 -37.25,-9.48 c -20.45,-5.28 -37.38,-9.62 -37.65,-9.75 -0.68,-0.54 5.55,-51.47 6.37,-52.42 0.41,-0.41 18.15,-2.44 39.28,-4.33 21.13,-1.9 38.47,-3.52 38.74,-3.79 0.14,-0.27 2.17,-6.23 4.6,-13.27 2.44,-7.04 6.5,-17.2 8.94,-22.62 l 4.47,-9.75 -26.95,-26.55 c -18.69,-18.28 -26.68,-26.95 -26,-28.17 3.66,-6.09 30.74,-41.58 31.69,-41.58 0.68,0 16.52,7.04 35.21,15.58 29.26,13.41 34.4,15.3 36.3,13.81 1.22,-0.95 5.42,-4.6 9.35,-8.13 7.45,-6.5 22.08,-17.74 25.73,-19.77 1.76,-0.95 0.81,-6.23 -7.18,-37.92 -5.01,-20.32 -8.94,-36.98 -8.67,-37.38 2.17,-2.03 49.3,-22.21 50.11,-21.4 0.54,0.54 10.29,14.49 21.54,30.88 11.38,16.39 20.72,29.93 20.86,29.93 0.14,0.14 6.91,-1.22 15.03,-2.98 8.26,-1.76 19.37,-3.52 24.79,-4.06 5.28,-0.54 9.75,-1.08 9.75,-1.22 0,-0.27 4.6,-15.85 10.16,-34.67 5.69,-18.96 10.56,-35.49 10.97,-36.84 0.79,-2.84 -1.52,-2.71 28.96,-0.13 z m -65.69,131.24 c -39.68,7.45 -78.28,27.36 -106.19,54.85 -43.75,43.21 -64.74,103.34 -56.21,160.77 2.98,20.32 7.58,35.35 16.66,53.91 9.75,19.77 20.99,35.49 36.43,50.52 43.61,42.53 108.49,61.08 170.25,48.89 80.32,-15.98 142.62,-78.28 157.38,-157.52 3.52,-18.42 3.12,-50.11 -0.81,-68.4 -15.17,-71.24 -68.13,-123.79 -142.21,-141.26 -15.71,-3.66 -59.32,-4.61 -75.3,-1.76 z"
       id="path53"
       inkscape:connector-curvature="0"
       style="fill:#010101" /><path
       class="st0"
       d="m 2134.2,6640.2 c 5.96,0 36.57,3.12 37.52,3.93 0.41,0.41 1.49,9.89 2.3,21.13 0.81,11.11 1.9,24.11 2.3,28.58 l 0.81,8.4 11.11,3.66 c 5.96,2.03 13.27,4.88 15.98,6.23 2.84,1.49 5.82,2.57 6.77,2.57 0.95,0 10.56,-8.8 21.4,-19.64 10.84,-10.83 20.32,-19.64 20.99,-19.64 2.57,0 32.51,22.62 32.1,24.24 -0.14,0.81 -5.69,12.73 -12.32,26.41 l -12.05,24.92 7.18,8.26 c 3.93,4.47 9.21,10.97 11.65,14.36 2.44,3.39 4.74,6.09 5.15,6.09 0.41,0 12.6,-3.12 27.09,-6.77 14.49,-3.79 26.95,-6.77 27.9,-6.77 0.95,0 5.28,8.26 9.89,18.28 l 8.13,18.28 -24.24,16.52 c -20.86,14.09 -24.38,16.93 -23.7,19.23 1.35,4.74 4.74,24.24 5.15,29.12 l 0.41,4.6 27.49,7.72 c 15.03,4.2 27.77,7.99 28.17,8.4 0.68,0.68 -3.12,39.14 -3.93,39.96 -0.27,0.14 -12.87,1.35 -28.17,2.44 -15.17,1.22 -28.31,2.3 -29.26,2.71 -0.81,0.27 -1.9,2.44 -2.44,5.01 -0.54,2.44 -3.25,10.02 -5.96,16.79 l -5.01,12.33 20.18,21.13 20.18,21.26 -11.78,16.25 c -6.5,8.94 -12.05,16.25 -12.19,16.25 -0.27,0 -9.62,-4.47 -20.86,-10.02 -11.24,-5.55 -20.45,-9.75 -20.45,-9.35 0,1.49 32.78,46.46 33.86,46.46 0.68,0 5.28,-0.95 10.43,-2.17 5.01,-1.22 12.87,-2.57 17.2,-2.98 l 7.99,-0.95 7.04,-27.49 c 3.93,-15.03 7.45,-27.9 7.99,-28.31 1.08,-1.08 38.33,1.35 39.55,2.71 0.54,0.54 2.17,13.68 3.66,29.25 l 2.71,28.31 7.99,2.3 c 4.47,1.22 12.33,3.93 17.61,6.09 l 9.48,3.93 20.45,-20.99 20.59,-20.99 16.52,11.24 c 9.07,6.23 16.52,11.65 16.66,12.19 0,0.41 -5.15,12.33 -11.51,26.28 -6.37,13.95 -11.38,25.87 -11.24,26.41 0.27,0.54 4.47,5.82 9.48,11.65 4.88,5.82 10.16,11.92 11.51,13.68 l 2.44,3.11 26.95,-7.45 c 14.9,-4.2 27.63,-7.58 28.44,-7.58 1.35,0.14 6.23,9.62 15.17,29.39 l 3.12,7.04 -23.3,16.52 c -12.87,9.07 -23.57,16.79 -23.84,16.93 -0.27,0.27 0.54,4.6 1.76,9.62 1.22,5.01 2.71,13.14 3.52,17.88 0.68,4.74 1.49,8.8 1.76,9.07 0.27,0.27 12.6,3.66 27.49,7.45 14.76,3.79 27.36,7.31 27.77,7.72 0.54,0.54 0.14,9.75 -0.68,20.59 l -1.49,19.64 -28.85,2.84 c -15.85,1.62 -28.98,3.11 -29.26,3.39 -0.27,0.27 -1.9,4.74 -3.39,10.02 -1.63,5.15 -4.33,12.87 -6.09,16.93 l -3.25,7.45 21.13,20.32 21.13,20.45 -11.38,16.52 c -6.23,9.07 -12.05,16.52 -12.87,16.52 -0.68,0 -12.87,-5.28 -26.82,-11.65 l -25.6,-11.65 -5.55,5.42 c -3.12,2.84 -9.35,8.26 -13.81,11.78 -4.46,3.52 -8.26,6.64 -8.53,6.77 -0.27,0.27 2.98,12.33 7.04,26.95 4.2,14.63 7.58,27.36 7.58,28.44 0,1.22 -23.97,13.68 -35.21,18.15 -0.54,0.14 -8.4,-10.02 -17.47,-22.62 -9.07,-12.73 -17.07,-23.43 -17.47,-23.7 -0.54,-0.27 -4.2,0.27 -8.13,1.22 -3.93,1.08 -11.92,2.57 -17.74,3.39 l -10.56,1.63 -3.52,13 c -1.76,7.31 -5.15,20.05 -7.18,28.44 l -3.93,15.3 -11.51,-0.95 c -6.37,-0.54 -15.44,-1.22 -20.32,-1.76 l -8.8,-0.81 -2.98,-28.85 c -1.63,-15.98 -3.11,-29.12 -3.39,-29.26 -0.27,-0.14 -6.5,-2.3 -13.95,-4.74 -7.45,-2.44 -15.17,-5.15 -17.07,-5.96 -3.52,-1.35 -4.47,-0.41 -23.57,19.1 -10.97,11.38 -20.32,20.59 -20.86,20.59 -0.54,0 -8.26,-5.01 -17.34,-11.24 l -16.39,-11.24 12.19,-26.82 12.19,-26.82 -6.64,-7.04 c -5.28,-5.42 -17.07,-19.5 -17.34,-20.72 0,-0.14 -12.87,3.39 -28.44,7.86 -18.15,5.01 -28.58,7.45 -28.98,6.5 -0.27,-0.81 -4.06,-8.8 -8.4,-17.74 -4.47,-8.8 -7.99,-16.66 -7.99,-17.2 0,-0.54 10.7,-8.67 23.7,-17.88 17.07,-12.05 23.43,-17.34 22.89,-18.83 -0.41,-1.08 -2.17,-9.35 -3.79,-18.28 l -3.11,-16.12 -27.36,-7.18 c -15.17,-3.79 -27.77,-7.31 -28.17,-7.72 -0.68,-0.68 2.17,-39.01 2.98,-39.82 0.27,-0.27 12.19,-1.63 26.68,-3.12 14.36,-1.35 27.22,-2.71 28.58,-2.84 1.76,-0.27 3.79,-4.47 7.86,-15.98 2.98,-8.53 5.69,-16.52 6.09,-17.74 0.54,-1.49 -5.42,-7.99 -19.64,-21.67 -11.24,-10.7 -20.45,-20.05 -20.45,-20.59 0,-1.22 21.67,-33.45 22.62,-33.45 0.27,0 9.07,3.93 19.77,8.67 10.56,4.88 19.37,8.53 19.64,8.26 0.27,-0.27 -6.64,-10.97 -15.44,-23.97 -8.8,-12.87 -15.98,-23.57 -15.98,-23.57 -0.14,-0.14 -5.96,0.81 -13,2.3 -7.04,1.35 -15.17,2.57 -17.88,2.57 -3.39,0 -5.42,0.81 -6.23,2.3 -0.68,1.35 -4.47,14.22 -8.4,28.44 -5.55,19.77 -7.86,26.14 -9.35,26.14 -1.22,0 -10.02,-0.95 -19.77,-2.03 -9.62,-1.08 -18.01,-2.03 -18.42,-2.03 -0.41,0 -1.49,-12.05 -2.44,-26.82 -0.95,-14.63 -2.17,-27.77 -2.57,-29.12 -0.68,-1.49 -5.15,-3.93 -11.78,-6.23 -5.96,-2.17 -13.54,-5.15 -16.93,-6.77 l -6.09,-2.71 -20.45,20.45 c -11.38,11.24 -21.13,20.18 -21.81,19.91 -0.68,-0.27 -8.4,-5.69 -16.93,-11.92 l -15.71,-11.24 12.73,-26.41 12.73,-26.55 -5.82,-6.23 c -3.12,-3.39 -8.4,-9.75 -11.65,-14.09 -3.25,-4.2 -6.5,-7.72 -7.18,-7.72 -0.68,0 -13.41,3.12 -28.17,7.04 -14.9,3.79 -27.36,6.64 -27.49,6.37 -1.08,-1.35 -15.85,-35.08 -15.85,-36.16 0,-0.54 10.7,-8.4 23.7,-17.2 13,-8.8 23.7,-16.52 23.7,-17.07 0,-0.54 -0.81,-4.88 -1.9,-9.62 -1.08,-4.74 -2.44,-12.6 -2.84,-17.47 l -0.95,-8.94 -27.9,-7.72 c -15.44,-4.2 -28.04,-7.86 -28.17,-7.99 -0.54,-0.54 3.79,-39.55 4.33,-40.09 0.27,-0.27 11.65,-1.35 25.33,-2.44 13.54,-0.95 26.41,-1.9 28.58,-2.03 3.52,-0.41 4.2,-1.22 6.91,-9.21 1.63,-4.88 4.74,-12.73 6.64,-17.47 l 3.79,-8.67 -20.59,-20.59 -20.59,-20.72 11.78,-16.39 c 6.5,-8.94 12.33,-16.39 13,-16.39 0.68,0 9.07,3.93 18.56,8.67 9.48,4.74 20.99,10.29 25.73,12.32 l 8.4,3.79 6.5,-6.09 c 3.52,-3.25 9.75,-8.53 14.09,-11.65 l 7.58,-5.55 -6.5,-25.6 c -3.52,-14.09 -6.91,-26.82 -7.31,-28.31 -0.81,-2.44 1.22,-3.66 16.39,-10.56 9.62,-4.2 18.01,-7.99 18.83,-8.4 0.81,-0.27 8.94,10.29 18.01,23.7 l 16.39,24.11 11.78,-2.44 c 6.64,-1.35 14.09,-2.44 16.79,-2.44 2.57,0 5.69,-0.81 6.91,-1.76 1.22,-0.95 5.28,-13.27 9.35,-28.31 6.36,-23.38 7.72,-26.76 10.02,-26.76 z m -51.74,107 c -28.31,9.35 -58.1,31.83 -73.95,55.94 -7.31,10.97 -16.39,30.88 -19.77,42.93 -7.86,28.98 -5.82,63.52 5.28,91.15 28.98,70.97 108.08,107.4 180,82.62 66.37,-22.62 106.73,-89.93 95.62,-158.74 -9.89,-60.41 -57.02,-108.22 -117.02,-118.65 -21.8,-3.92 -49.57,-2.03 -70.16,4.75 z m 172.15,275.08 c -2.17,2.3 -7.99,7.31 -13,10.97 -5.15,3.79 -9.21,7.72 -9.21,8.67 0,1.08 3.11,13.68 6.77,28.17 3.79,14.49 6.77,26.55 6.77,26.95 0,0.27 -8.26,4.2 -18.28,8.53 -10.02,4.33 -18.28,8.26 -18.28,8.8 0,0.41 2.71,2.03 5.96,3.52 l 5.96,2.98 3.79,-4.06 c 2.17,-2.3 8.53,-7.72 14.22,-12.19 l 10.29,-8.13 -7.86,-28.04 c -4.33,-15.44 -7.72,-28.04 -7.58,-28.17 0.14,-0.14 8.4,-4.33 18.28,-9.21 l 18.01,-8.8 -4.06,-2.17 c -5.69,-2.83 -7.18,-2.56 -11.78,2.18 z m 106.45,85.73 c -24.11,-0.54 -31.96,0.54 -50.52,6.77 -50.65,16.93 -88.17,62.71 -95.62,116.48 -11.24,80.32 46.32,153.05 128.13,162.39 26.28,2.84 52.42,-2.03 78.28,-14.63 44.97,-22.08 74.09,-64.2 79.23,-114.85 4.47,-44.02 -11.78,-86.68 -44.83,-118.1 -16.79,-15.98 -36.3,-26.95 -60.14,-34 -10.55,-3.11 -15.16,-3.65 -34.53,-4.06 z"
       id="path55"
       inkscape:connector-curvature="0"
       style="fill:#010101" /><path
       class="st0"
       d="m 2769.15,6868.96 8.94,0.81 c 4.88,0.54 14.09,1.35 20.45,1.76 l 11.51,0.95 2.71,28.98 2.71,28.98 11.51,3.66 c 6.37,2.03 14.22,4.74 17.34,6.09 l 5.96,2.44 20.72,-20.72 20.72,-20.59 16.39,11.11 c 8.94,6.1 16.39,11.65 16.39,12.33 0,0.68 -5.28,12.73 -11.65,26.95 l -11.65,25.6 8.4,9.21 c 4.6,5.01 10.02,11.51 11.92,14.36 2.17,3.39 4.06,4.88 5.55,4.33 1.22,-0.27 13.14,-3.66 26.55,-7.45 13.41,-3.66 25.19,-7.04 26.14,-7.45 2.17,-0.81 20.05,35.76 18.28,37.25 -0.54,0.54 -10.84,7.86 -22.75,16.25 -11.92,8.4 -22.21,15.71 -22.75,16.25 -0.54,0.54 -0.14,4.33 0.95,8.53 1.08,4.2 2.71,12.46 3.52,18.28 l 1.63,10.43 27.77,7.04 c 15.44,3.93 28.17,7.31 28.44,7.72 0.54,0.54 -2.44,39.14 -3.12,39.95 -0.27,0.27 -13.41,1.76 -29.26,3.39 l -28.58,2.84 -1.22,4.06 c -0.68,2.17 -3.39,10.02 -6.09,17.34 l -4.88,13.41 20.72,20.72 20.72,20.72 -10.56,15.3 c -5.82,8.53 -11.11,15.98 -11.65,16.66 -0.54,0.54 -12.6,-4.06 -26.82,-10.56 -14.22,-6.37 -26.14,-11.65 -26.55,-11.65 -0.41,0 -5.15,3.79 -10.56,8.4 -5.42,4.74 -11.78,10.02 -14.09,11.92 l -4.33,3.39 7.18,25.73 c 4.06,14.09 7.58,26.82 7.86,28.04 0.27,1.76 -4.06,4.47 -17.74,11.24 -10.02,4.88 -18.56,8.4 -18.96,7.72 -0.41,-0.68 -8.13,-11.38 -17.07,-23.84 -14.9,-20.86 -16.39,-22.62 -19.64,-21.94 -1.9,0.54 -8.8,1.76 -15.58,2.98 -6.64,1.22 -13.41,2.44 -15.03,2.71 -2.44,0.41 -3.66,4.2 -10.02,28.98 -5.96,23.3 -7.58,28.31 -9.35,27.9 -1.22,-0.41 -9.89,-1.08 -19.5,-1.63 -10.16,-0.54 -17.61,-1.49 -18.28,-2.44 -0.54,-0.81 -2.17,-13.95 -3.66,-29.12 l -2.71,-27.77 -14.22,-4.88 c -7.86,-2.71 -15.71,-5.69 -17.47,-6.64 -3.11,-1.76 -4.06,-0.95 -23.7,19.5 l -20.45,21.26 -16.52,-11.24 c -9.21,-6.23 -16.66,-11.92 -16.66,-12.6 0,-0.68 5.28,-12.6 11.65,-26.68 l 11.65,-25.46 -8.53,-9.89 c -4.74,-5.55 -10.16,-12.05 -12.05,-14.49 l -3.39,-4.33 -26.68,7.45 c -14.76,4.2 -27.49,7.58 -28.58,7.58 -1.35,0 -13.54,-23.57 -18.28,-35.21 -0.27,-0.54 10.29,-8.53 23.3,-17.74 21.81,-15.44 23.7,-17.07 23.02,-20.18 -1.76,-7.45 -4.33,-21.4 -5.15,-27.22 l -0.95,-6.23 -28.44,-7.18 -28.44,-7.18 0.81,-9.62 c 0.54,-5.28 1.22,-14.49 1.76,-20.45 l 0.95,-10.84 28.71,-2.84 c 15.85,-1.49 28.98,-2.98 29.26,-3.39 0.27,-0.27 2.03,-5.42 3.93,-11.38 1.9,-5.96 4.47,-13.54 5.82,-16.93 l 2.3,-6.1 -20.59,-20.45 -20.72,-20.45 11.24,-16.52 c 6.09,-8.94 11.65,-16.39 12.32,-16.39 0.67,0 12.73,5.28 26.95,11.65 l 25.87,11.78 5.69,-5.42 c 4.47,-4.33 12.6,-11.11 22.21,-18.56 0.27,-0.27 -13.81,-50.93 -15.17,-54.72 -0.81,-2.17 35.76,-19.91 37.25,-18.28 0.54,0.54 8.26,11.11 16.93,23.43 8.8,12.33 16.12,22.48 16.25,22.75 0.27,0.27 3.93,-0.54 8.26,-1.63 4.47,-1.08 12.6,-2.71 18.28,-3.52 l 10.29,-1.62 7.18,-28.44 z m -17.34,101.85 c -33.45,4.6 -68.4,23.43 -89.39,48.08 -24.11,28.44 -35.35,58.78 -35.08,95.35 0.27,39.82 14.09,72.87 42.53,101.31 54.85,54.85 145.46,55.26 201.26,0.68 37.79,-36.98 52.14,-90.07 38.33,-141.26 -4.06,-15.17 -15.98,-38.33 -26.14,-51.06 -20.18,-25.33 -51.33,-44.7 -82.75,-51.2 -13.41,-2.71 -36.16,-3.66 -48.76,-1.9 z"
       id="path57"
       inkscape:connector-curvature="0"
       style="fill:#010101" /></g></svg>