<?xml version="1.0" encoding="utf-8"?>
<!-- Generator: Adobe Illustrator 23.0.3, SVG Export Plug-In . SVG Version: 6.00 Build 0)  -->
<svg version="1.1"
	 id="Layer_1" inkscape:version="0.92.2 5c3e80d, 2017-08-06" sodipodi:docname="gear-kit.svg" xmlns:cc="http://creativecommons.org/ns#" xmlns:dc="http://purl.org/dc/elements/1.1/" xmlns:inkscape="http://www.inkscape.org/namespaces/inkscape" xmlns:rdf="http://www.w3.org/1999/02/22-rdf-syntax-ns#" xmlns:sodipodi="http://sodipodi.sourceforge.net/DTD/sodipodi-0.dtd" xmlns:svg="http://www.w3.org/2000/svg"
	 xmlns="http://www.w3.org/2000/svg" xmlns:xlink="http://www.w3.org/1999/xlink" x="0px" y="0px" viewBox="0 0 173.3 117.8"
	 style="enable-background:new 0 0 173.3 117.8;" xml:space="preserve">
<style type="text/css">
	.st0{fill:none;stroke:#010101;stroke-miterlimit:10;}
</style>
<path id="path51" inkscape:connector-curvature="0" class="st0" d="M114.7,117.8c0.2,0,2.9-0.3,3.5-0.3l0.6-0.1l0.2-2.1
	c0.3-3.9,0.2-3.7,0.9-3.8c0.3-0.1,1.1-0.4,1.7-0.6l1.2-0.5l2.1,2.1l2.1,2l1.7-1.2c0.9-0.6,1.6-1.2,1.6-1.3c0-0.1-0.6-1.3-1.2-2.6
	l-1.2-2.5l1.1-1.3c0.6-0.7,1.1-1.4,1.1-1.4c0-0.2,0.4-0.1,3,0.6c1.4,0.4,2.6,0.7,2.7,0.7c0.1,0,0.5-0.7,1-1.8l0.8-1.8l-2.4-1.7
	c-1.8-1.2-2.4-1.7-2.4-1.9c0.1-0.1,0.2-0.8,0.3-1.6c0.1-0.7,0.2-1.5,0.3-1.6c0-0.2,0.4-0.4,2.8-1l2.8-0.7v-0.4
	c0-0.2-0.1-1.2-0.1-2.1l-0.2-1.6l-1.2-0.1c-0.7-0.1-2-0.2-2.9-0.3l-1.7-0.1l-0.5-1.4c-0.3-0.8-0.6-1.5-0.6-1.7
	c-0.1-0.2,0.1-0.5,1.9-2.4c1.1-1.2,2-2.2,2-2.3c0-0.1-2-2.9-2.2-3.1c0,0-1.2,0.5-2.7,1.2l-2.7,1.2l-0.7-0.7c-0.4-0.4-1-0.9-1.4-1.2
	c-0.6-0.4-0.7-0.6-0.7-0.8c0-0.2,0.4-1.4,0.7-2.8l0.7-2.5l-1.5-0.7c-0.8-0.4-1.7-0.8-1.9-0.9c-0.3-0.1-0.4-0.1-2,2.2l-1.7,2.4
	l-1.4-0.3c-0.8-0.1-1.6-0.3-1.9-0.3l-0.5-0.1L115,72c-0.4-1.4-0.7-2.7-0.8-2.8c-0.1-0.1-0.4-0.1-2,0c-1.1,0.1-2,0.2-2,0.3
	c-0.1,0.1-0.2,1.3-0.3,2.9c-0.1,1.5-0.3,2.8-0.3,2.9c-0.1,0-0.5,0.2-1.1,0.4c-0.5,0.2-1.3,0.4-1.6,0.6l-0.7,0.3l-2-2
	c-1.1-1.1-2.1-2-2.2-2c-0.1,0-3,1.9-3.3,2.2c0,0,0.5,1.2,1.2,2.6c0.7,1.4,1.2,2.6,1.2,2.7s-0.2,0.3-0.4,0.5
	c-0.2,0.2-0.8,0.8-1.2,1.4c-0.6,0.8-0.8,1-1,0.9c-1.2-0.4-5.3-1.4-5.4-1.3c-0.1,0.1-1.6,3.4-1.6,3.5c0,0.1,1,0.8,2.3,1.7
	c1.3,0.9,2.3,1.6,2.4,1.7c0,0.1-0.1,0.7-0.2,1.3c-0.1,0.7-0.3,1.4-0.3,1.7s-0.1,0.5-0.1,0.6c-0.1,0.1-1.3,0.4-2.8,0.8
	c-1.4,0.4-2.7,0.8-2.7,0.8c-0.1,0,0,1,0.1,2l0.2,1.9l0.6,0.1c0.3,0,1.4,0.1,2.4,0.2c3.1,0.2,2.9,0.2,3.1,0.9
	c0.1,0.4,0.4,1.1,0.6,1.7l0.4,1.1l-2,2c-1.1,1.1-2,2.1-2,2.1c0,0.1,0.5,0.8,1.2,1.7l1.2,1.6l2.6-1.3l2.6-1.3l0.6,0.5
	c0.4,0.4,1.9,1.6,2.3,1.8c0,0-0.3,1.3-0.7,2.8c-0.4,1.5-0.7,2.8-0.7,2.8c0.2,0.2,3.7,1.7,3.8,1.6c0.1-0.1,0.8-1.1,1.6-2.3
	c0.8-1.2,1.6-2.2,1.6-2.3c0.1,0,0.5,0,1,0.1c0.5,0.1,1.3,0.2,1.7,0.3l0.9,0.1l0.2,0.6c0.1,0.3,0.5,1.6,0.8,2.8
	C114.4,116.9,114.7,117.8,114.7,117.8L114.7,117.8z M104.5,103.8c-2.3-2.2-3.7-4.8-4.3-7.8c-0.3-1.7-0.2-4.5,0.3-6.3
	c1.5-5.3,5.7-9.3,11.2-10.4c1.6-0.3,4.7-0.2,6.3,0.2c3.1,0.8,5.7,2.5,7.7,5c2.1,2.6,3.1,5.6,3.1,8.9c0,1.7-0.2,3.2-0.7,4.7
	c-1.7,5-6.2,8.8-11.4,9.6C112.1,108.3,107.8,106.9,104.5,103.8z"/>
<path id="path53" inkscape:connector-curvature="0" class="st0" d="M36.4,103.4c1.4-0.1,2.5-0.3,2.6-0.3c0.1-0.1,0.2-1.4,0.3-3.1
	c0.1-1.6,0.2-3.3,0.2-3.7l0.1-0.8l0.9-0.2c0.5-0.1,1.5-0.5,2.3-0.8l1.4-0.6l0.7,0.7c3.1,3,4.9,4.6,5,4.6c0.2,0,4.3-2.9,4.3-3
	c0-0.1-0.8-1.7-1.7-3.5l-1.7-3.4l0.9-1c0.5-0.5,1.2-1.3,1.5-1.8c0.3-0.5,0.6-0.9,0.6-0.9c0,0,1.6,0.4,3.6,0.9c2,0.5,3.7,1,3.8,1
	c0.2,0,0.5-0.4,1.3-2.3c0.6-1.3,1.1-2.4,1.1-2.4c0,0-1.5-1-3.3-2.2c-1.8-1.2-3.3-2.2-3.3-2.2c0,0,0.1-0.5,0.2-1
	c0.1-0.5,0.3-1.6,0.4-2.3l0.2-1.4l3.7-1c3.2-0.8,3.7-1,3.7-1.2c0-0.3-0.5-5-0.5-5c0,0-1.8-0.2-3.9-0.4c-2.1-0.2-3.9-0.4-3.9-0.4
	s-0.3-0.6-0.5-1.2c-0.2-0.6-0.6-1.6-0.9-2.2l-0.5-1.1l2.7-2.7l2.7-2.7l-1.6-2.2l-1.6-2.2l-2.1,1c-1.2,0.5-2.7,1.3-3.5,1.6l-1.4,0.6
	l-0.9-0.8c-0.5-0.4-1.4-1.1-1.9-1.6c-0.6-0.4-1.1-0.8-1.1-0.9c0,0,0.4-1.7,0.9-3.6c0.5-2,0.9-3.6,0.8-3.6c-0.1-0.1-4.4-2-4.7-2.2
	C43.3,42,43,42.3,42,43.8c-0.7,1-1.7,2.4-2.2,3.1l-0.9,1.3L37.9,48c-0.5-0.1-1.5-0.3-2.1-0.4c-0.7-0.1-1.3-0.2-1.5-0.2
	c-0.3-0.1-0.4-0.1-1.8-5c-0.4-1.2-0.7-2.3-0.7-2.4c-0.1-0.1-5.3,0.4-5.4,0.5c-0.1,0.1-0.2,1.5-0.3,3.1c-0.1,1.6-0.2,3.3-0.3,3.7
	L25.8,48l-1.1,0.3c-0.6,0.2-1.5,0.5-2.1,0.7c-0.6,0.2-1.1,0.4-1.2,0.5c-0.1,0-1.5-1.2-3-2.7l-2.8-2.7l-1.8,1.2c-1,0.7-2,1.4-2.2,1.5
	l-0.4,0.3l1.7,3.4l1.7,3.4l-0.7,0.8c-0.5,0.6-2.2,2.6-2.4,3c0,0-1.7-0.4-3.8-1c-2.1-0.6-3.8-1-3.9-0.9c-0.2,0.3-2.2,4.7-2.1,4.8
	c0.1,0.1,1.5,1.1,3.3,2.2c2.8,1.9,3.2,2.2,3.1,2.4C8,66,7.7,67.9,7.6,68.8l-0.1,1l-3.7,0.9c-2,0.5-3.7,1-3.8,1
	c-0.1,0.1,0.6,5.1,0.6,5.2c0,0,1.8,0.2,3.9,0.4c2.1,0.2,3.8,0.4,3.9,0.4c0,0,0.2,0.6,0.5,1.3c0.2,0.7,0.6,1.7,0.9,2.3l0.4,1L7.6,85
	c-1.9,1.8-2.7,2.7-2.6,2.8C5.3,88.4,8,92,8.1,92c0.1,0,1.7-0.7,3.5-1.6c2.9-1.3,3.4-1.5,3.6-1.4c0.1,0.1,0.5,0.5,0.9,0.8
	c0.7,0.7,2.2,1.8,2.6,2c0.2,0.1,0.1,0.6-0.7,3.8c-0.5,2-0.9,3.7-0.9,3.7c0.2,0.2,4.9,2.2,5,2.1c0.1-0.1,1-1.4,2.2-3.1
	c1.1-1.6,2.1-3,2.1-3c0,0,0.7,0.1,1.5,0.3c0.8,0.2,1.9,0.4,2.5,0.4c0.5,0.1,1,0.1,1,0.1c0,0,0.5,1.6,1,3.5c0.6,1.9,1.1,3.5,1.1,3.7
	C33.6,103.7,33.4,103.7,36.4,103.4L36.4,103.4z M29.8,90.3c-4-0.7-7.8-2.7-10.6-5.5c-4.4-4.3-6.5-10.3-5.6-16.1
	c0.3-2,0.8-3.5,1.7-5.4c1-2,2.1-3.5,3.6-5.1c4.4-4.3,10.8-6.1,17-4.9c8,1.6,14.3,7.8,15.7,15.8c0.4,1.8,0.3,5-0.1,6.8
	c-1.5,7.1-6.8,12.4-14.2,14.1C35.8,90.5,31.4,90.6,29.8,90.3L29.8,90.3z"/>
<path id="path55" inkscape:connector-curvature="0" class="st0" d="M85.2,85.5c0.6,0,3.7-0.3,3.8-0.4c0,0,0.1-1,0.2-2.1
	c0.1-1.1,0.2-2.4,0.2-2.9l0.1-0.8l1.1-0.4c0.6-0.2,1.3-0.5,1.6-0.6c0.3-0.1,0.6-0.3,0.7-0.3c0.1,0,1.1,0.9,2.1,2c1.1,1.1,2,2,2.1,2
	c0.3,0,3.3-2.3,3.2-2.4c0-0.1-0.6-1.3-1.2-2.6l-1.2-2.5l0.7-0.8c0.4-0.4,0.9-1.1,1.2-1.4c0.2-0.3,0.5-0.6,0.5-0.6s1.3,0.3,2.7,0.7
	c1.4,0.4,2.7,0.7,2.8,0.7s0.5-0.8,1-1.8l0.8-1.8l-2.4-1.7c-2.1-1.4-2.4-1.7-2.4-1.9c0.1-0.5,0.5-2.4,0.5-2.9l0-0.5l2.7-0.8
	c1.5-0.4,2.8-0.8,2.8-0.8c0.1-0.1-0.3-3.9-0.4-4c0,0-1.3-0.1-2.8-0.2c-1.5-0.1-2.8-0.2-2.9-0.3c-0.1,0-0.2-0.2-0.2-0.5
	c-0.1-0.2-0.3-1-0.6-1.7l-0.5-1.2l2-2.1l2-2.1l-1.2-1.6c-0.7-0.9-1.2-1.6-1.2-1.6c0,0-1,0.4-2.1,1s-2,1-2,0.9c0-0.1,3.3-4.6,3.4-4.6
	c0.1,0,0.5,0.1,1,0.2c0.5,0.1,1.3,0.3,1.7,0.3l0.8,0.1l0.7,2.7c0.4,1.5,0.7,2.8,0.8,2.8c0.1,0.1,3.8-0.1,4-0.3
	c0.1-0.1,0.2-1.4,0.4-2.9l0.3-2.8l0.8-0.2c0.4-0.1,1.2-0.4,1.8-0.6l0.9-0.4l2,2.1l2.1,2.1l1.7-1.1c0.9-0.6,1.7-1.2,1.7-1.2
	c0,0-0.5-1.2-1.2-2.6c-0.6-1.4-1.1-2.6-1.1-2.6c0-0.1,0.4-0.6,0.9-1.2c0.5-0.6,1-1.2,1.2-1.4l0.2-0.3l2.7,0.7
	c1.5,0.4,2.8,0.8,2.8,0.8c0.1,0,0.6-1,1.5-2.9l0.3-0.7l-2.3-1.7c-1.3-0.9-2.4-1.7-2.4-1.7c0,0,0.1-0.5,0.2-1
	c0.1-0.5,0.3-1.3,0.4-1.8c0.1-0.5,0.1-0.9,0.2-0.9c0,0,1.3-0.4,2.7-0.7c1.5-0.4,2.7-0.7,2.8-0.8c0.1-0.1,0-1-0.1-2.1l-0.1-2
	l-2.9-0.3c-1.6-0.2-2.9-0.3-2.9-0.3c0,0-0.2-0.5-0.3-1c-0.2-0.5-0.4-1.3-0.6-1.7l-0.3-0.7l2.1-2l2.1-2l-1.1-1.7
	c-0.6-0.9-1.2-1.7-1.3-1.7c-0.1,0-1.3,0.5-2.7,1.2l-2.6,1.2l-0.6-0.5c-0.3-0.3-0.9-0.8-1.4-1.2c-0.4-0.4-0.8-0.7-0.9-0.7
	c0,0,0.3-1.2,0.7-2.7c0.4-1.5,0.8-2.7,0.8-2.8c0-0.1-2.4-1.4-3.5-1.8c-0.1,0-0.8,1-1.7,2.3c-0.9,1.3-1.7,2.3-1.7,2.4
	c-0.1,0-0.4,0-0.8-0.1c-0.4-0.1-1.2-0.3-1.8-0.3l-1.1-0.2l-0.4-1.3c-0.2-0.7-0.5-2-0.7-2.8L107.7,0l-1.2,0.1c-0.6,0.1-1.5,0.1-2,0.2
	l-0.9,0.1l-0.3,2.9c-0.2,1.6-0.3,2.9-0.3,2.9c0,0-0.7,0.2-1.4,0.5c-0.7,0.2-1.5,0.5-1.7,0.6c-0.4,0.1-0.4,0-2.4-1.9
	c-1.1-1.1-2-2.1-2.1-2.1s-0.8,0.5-1.7,1.1l-1.6,1.1l1.2,2.7l1.2,2.7l-0.7,0.7c-0.5,0.5-1.7,1.9-1.7,2.1c0,0-1.3-0.3-2.8-0.8
	c-1.8-0.5-2.9-0.7-2.9-0.6c0,0.1-0.4,0.9-0.8,1.8c-0.4,0.9-0.8,1.7-0.8,1.7c0,0.1,1.1,0.9,2.4,1.8c1.7,1.2,2.3,1.7,2.3,1.9
	c0,0.1-0.2,0.9-0.4,1.8l-0.3,1.6L86,23.5c-1.5,0.4-2.8,0.7-2.8,0.8c-0.1,0.1,0.2,3.9,0.3,4c0,0,1.2,0.2,2.7,0.3
	c1.4,0.1,2.7,0.3,2.9,0.3c0.2,0,0.4,0.4,0.8,1.6c0.3,0.9,0.6,1.7,0.6,1.8c0.1,0.1-0.5,0.8-2,2.2c-1.1,1.1-2,2-2,2.1
	c0,0.1,2.2,3.3,2.3,3.3c0,0,0.9-0.4,2-0.9c1.1-0.5,1.9-0.9,2-0.8c0,0-0.7,1.1-1.5,2.4c-0.9,1.3-1.6,2.4-1.6,2.4c0,0-0.6-0.1-1.3-0.2
	c-0.7-0.1-1.5-0.3-1.8-0.3c-0.3,0-0.5-0.1-0.6-0.2c-0.1-0.1-0.4-1.4-0.8-2.8c-0.6-2-0.8-2.6-0.9-2.6c-0.1,0-1,0.1-2,0.2
	c-1,0.1-1.8,0.2-1.8,0.2c0,0-0.1,1.2-0.2,2.7c-0.1,1.5-0.2,2.8-0.3,2.9c-0.1,0.1-0.5,0.4-1.2,0.6c-0.6,0.2-1.4,0.5-1.7,0.7l-0.6,0.3
	l-2-2c-1.1-1.1-2.1-2-2.2-2c-0.1,0-0.8,0.6-1.7,1.2l-1.6,1.1l1.3,2.6l1.3,2.7l-0.6,0.6c-0.3,0.3-0.8,1-1.2,1.4
	c-0.3,0.4-0.7,0.8-0.7,0.8c-0.1,0-1.3-0.3-2.8-0.7c-1.5-0.4-2.7-0.7-2.7-0.6c-0.1,0.1-1.6,3.5-1.6,3.6c0,0.1,1.1,0.8,2.4,1.7
	c1.3,0.9,2.4,1.7,2.4,1.7c0,0.1-0.1,0.5-0.2,1c-0.1,0.5-0.2,1.3-0.3,1.7L65.8,60L63,60.7c-1.5,0.4-2.8,0.8-2.8,0.8
	c-0.1,0.1,0.4,4,0.4,4c0,0,1.2,0.1,2.5,0.2c1.4,0.1,2.6,0.2,2.9,0.2c0.4,0,0.4,0.1,0.7,0.9c0.2,0.5,0.5,1.3,0.7,1.7l0.4,0.9
	l-2.1,2.1l-2.1,2.1l1.2,1.6c0.6,0.9,1.2,1.6,1.3,1.6c0.1,0,0.9-0.4,1.9-0.9c0.9-0.5,2.1-1,2.6-1.2l0.8-0.4l0.7,0.6
	c0.4,0.3,1,0.9,1.4,1.2l0.8,0.6l-0.7,2.6c-0.4,1.4-0.7,2.7-0.7,2.8c-0.1,0.2,0.1,0.4,1.6,1.1c1,0.4,1.8,0.8,1.9,0.8
	c0.1,0,0.9-1,1.8-2.4l1.6-2.4l1.2,0.2c0.7,0.1,1.4,0.2,1.7,0.2c0.3,0,0.6,0.1,0.7,0.2c0.1,0.1,0.5,1.3,0.9,2.8
	C84.9,85.1,85,85.5,85.2,85.5L85.2,85.5z M80.1,74.8c-2.8-0.9-5.8-3.2-7.4-5.6c-0.7-1.1-1.6-3.1-2-4.3c-0.8-2.9-0.6-6.4,0.5-9.1
	c2.9-7.1,10.8-10.7,18-8.3c6.6,2.3,10.7,9,9.6,15.9c-1,6-5.7,10.8-11.7,11.9C84.9,75.6,82.1,75.5,80.1,74.8L80.1,74.8z M97.3,47.3
	c-0.2-0.2-0.8-0.7-1.3-1.1c-0.5-0.4-0.9-0.8-0.9-0.9c0-0.1,0.3-1.4,0.7-2.8c0.4-1.4,0.7-2.7,0.7-2.7c0,0-0.8-0.4-1.8-0.9
	c-1-0.4-1.8-0.8-1.8-0.9c0,0,0.3-0.2,0.6-0.4l0.6-0.3l0.4,0.4c0.2,0.2,0.9,0.8,1.4,1.2l1,0.8L96,42.6c-0.4,1.5-0.8,2.8-0.8,2.8
	c0,0,0.8,0.4,1.8,0.9l1.8,0.9l-0.4,0.2C97.9,47.8,97.7,47.7,97.3,47.3L97.3,47.3z M107.9,38.7c-2.4,0.1-3.2-0.1-5.1-0.7
	c-5.1-1.7-8.8-6.3-9.6-11.6c-1.1-8,4.6-15.3,12.8-16.2c2.6-0.3,5.2,0.2,7.8,1.5c4.5,2.2,7.4,6.4,7.9,11.5c0.4,4.4-1.2,8.7-4.5,11.8
	c-1.7,1.6-3.6,2.7-6,3.4C110.3,38.6,109.9,38.7,107.9,38.7z"/>
<path id="path57" inkscape:connector-curvature="0" class="st0" d="M148.7,62.6l0.9-0.1c0.5-0.1,1.4-0.1,2-0.2l1.2-0.1l0.3-2.9
	l0.3-2.9l1.2-0.4c0.6-0.2,1.4-0.5,1.7-0.6l0.6-0.2l2.1,2.1l2.1,2.1l1.6-1.1c0.9-0.6,1.6-1.2,1.6-1.2c0-0.1-0.5-1.3-1.2-2.7l-1.2-2.6
	l0.8-0.9c0.5-0.5,1-1.2,1.2-1.4c0.2-0.3,0.4-0.5,0.6-0.4c0.1,0,1.3,0.4,2.7,0.7c1.3,0.4,2.5,0.7,2.6,0.7c0.2,0.1,2-3.6,1.8-3.7
	c-0.1-0.1-1.1-0.8-2.3-1.6c-1.2-0.8-2.2-1.6-2.3-1.6c-0.1-0.1,0-0.4,0.1-0.9c0.1-0.4,0.3-1.2,0.4-1.8l0.2-1l2.8-0.7
	c1.5-0.4,2.8-0.7,2.8-0.8c0.1-0.1-0.2-3.9-0.3-4c0,0-1.3-0.2-2.9-0.3l-2.9-0.3l-0.1-0.4c-0.1-0.2-0.3-1-0.6-1.7l-0.5-1.3l2.1-2.1
	l2.1-2.1l-1.1-1.5c-0.6-0.9-1.1-1.6-1.2-1.7c-0.1-0.1-1.3,0.4-2.7,1.1c-1.4,0.6-2.6,1.2-2.7,1.2c0,0-0.5-0.4-1.1-0.8
	c-0.5-0.5-1.2-1-1.4-1.2l-0.4-0.3l0.7-2.6c0.4-1.4,0.8-2.7,0.8-2.8c0-0.2-0.4-0.4-1.8-1.1c-1-0.5-1.9-0.8-1.9-0.8
	c0,0.1-0.8,1.1-1.7,2.4c-1.5,2.1-1.6,2.3-2,2.2c-0.2-0.1-0.9-0.2-1.6-0.3c-0.7-0.1-1.3-0.2-1.5-0.3c-0.2,0-0.4-0.4-1-2.9
	c-0.6-2.3-0.8-2.8-0.9-2.8c-0.1,0-1,0.1-1.9,0.2c-1,0.1-1.8,0.1-1.8,0.2c-0.1,0.1-0.2,1.4-0.4,2.9l-0.3,2.8l-1.4,0.5
	c-0.8,0.3-1.6,0.6-1.7,0.7c-0.3,0.2-0.4,0.1-2.4-2l-2-2.1l-1.7,1.1c-0.9,0.6-1.7,1.2-1.7,1.3s0.5,1.3,1.2,2.7l1.2,2.5l-0.9,1
	c-0.5,0.6-1,1.2-1.2,1.4l-0.3,0.4l-2.7-0.7c-1.5-0.4-2.7-0.8-2.9-0.8c-0.1,0-1.4,2.4-1.8,3.5c0,0.1,1,0.9,2.3,1.8
	c2.2,1.5,2.4,1.7,2.3,2c-0.2,0.7-0.4,2.1-0.5,2.7l-0.1,0.6l-2.8,0.7l-2.8,0.7l0.1,1c0.1,0.5,0.1,1.4,0.2,2l0.1,1.1l2.9,0.3
	c1.6,0.1,2.9,0.3,2.9,0.3c0,0,0.2,0.5,0.4,1.1c0.2,0.6,0.4,1.4,0.6,1.7l0.2,0.6l-2.1,2l-2.1,2l1.1,1.7c0.6,0.9,1.2,1.6,1.2,1.6
	c0.1,0,1.3-0.5,2.7-1.2l2.6-1.2l0.6,0.5c0.4,0.4,1.3,1.1,2.2,1.9c0,0-1.4,5.1-1.5,5.5c-0.1,0.2,3.6,2,3.7,1.8
	c0.1-0.1,0.8-1.1,1.7-2.3c0.9-1.2,1.6-2.2,1.6-2.3c0,0,0.4,0.1,0.8,0.2c0.4,0.1,1.3,0.3,1.8,0.4l1,0.2l0.7,2.8L148.7,62.6z
	 M147,52.4c-3.3-0.5-6.8-2.3-8.9-4.8c-2.4-2.8-3.5-5.9-3.5-9.5c0-4,1.4-7.3,4.3-10.1c5.5-5.5,14.5-5.5,20.1-0.1
	c3.8,3.7,5.2,9,3.8,14.1c-0.4,1.5-1.6,3.8-2.6,5.1c-2,2.5-5.1,4.5-8.3,5.1C150.5,52.5,148.3,52.6,147,52.4L147,52.4z"/>
</svg>
