<?xml version="1.0" encoding="UTF-8" standalone="no"?>
<!-- Generator: Adobe Illustrator 23.0.3, SVG Export Plug-In . SVG Version: 6.00 Build 0)  -->

<svg
   xmlns:dc="http://purl.org/dc/elements/1.1/"
   xmlns:cc="http://creativecommons.org/ns#"
   xmlns:rdf="http://www.w3.org/1999/02/22-rdf-syntax-ns#"
   xmlns:svg="http://www.w3.org/2000/svg"
   xmlns="http://www.w3.org/2000/svg"
   xmlns:sodipodi="http://sodipodi.sourceforge.net/DTD/sodipodi-0.dtd"
   xmlns:inkscape="http://www.inkscape.org/namespaces/inkscape"
   version="1.1"
   id="Layer_1"
   x="0px"
   y="0px"
   viewBox="0 0 115.4177 87.33374"
   xml:space="preserve"
   sodipodi:docname="haptic-motor.svg"
   width="115.4177"
   height="87.33374"
   inkscape:version="0.92.2 5c3e80d, 2017-08-06"><metadata
     id="metadata83"><rdf:RDF><cc:Work
         rdf:about=""><dc:format>image/svg+xml</dc:format><dc:type
           rdf:resource="http://purl.org/dc/dcmitype/StillImage" /></cc:Work></rdf:RDF></metadata><defs
     id="defs81" /><sodipodi:namedview
     pagecolor="#ffffff"
     bordercolor="#666666"
     borderopacity="1"
     objecttolerance="10"
     gridtolerance="10"
     guidetolerance="10"
     inkscape:pageopacity="0"
     inkscape:pageshadow="2"
     inkscape:window-width="640"
     inkscape:window-height="480"
     id="namedview79"
     showgrid="false"
     inkscape:zoom="0.65555556"
     inkscape:cx="58.12"
     inkscape:cy="42.713741"
     inkscape:window-x="0"
     inkscape:window-y="0"
     inkscape:window-maximized="0"
     inkscape:current-layer="Layer_1" /><style
     type="text/css"
     id="style68">
	.st0{fill:#FFFFFF;stroke:#000000;stroke-miterlimit:10;}
	.st1{fill:none;stroke:#000000;stroke-width:0.25;stroke-miterlimit:10;}
</style><g
     id="g76"
     transform="translate(-157.88,-135.38)"><path
       class="st0"
       d="m 186.96,150.17 c 0,7.89 -6.4,14.29 -14.29,14.29 -7.89,0 -14.29,-6.4 -14.29,-14.29 0,-7.89 6.4,-14.29 14.29,-14.29 7.89,0 14.29,6.39 14.29,14.29 z"
       id="path70"
       inkscape:connector-curvature="0"
       style="fill:#ffffff;stroke:#000000;stroke-miterlimit:10" /><path
       class="st1"
       d="m 185.47,156.97 c 11.91,-1.22 23.82,-0.95 32.02,9.13 5.45,6.71 7.13,15.61 9.25,23.99 2.89,11.42 8.49,20.99 19.47,26.21 7.72,3.67 16.42,5.09 24.81,6.29"
       id="path72"
       inkscape:connector-curvature="0"
       style="fill:none;stroke:#000000;stroke-width:0.25;stroke-miterlimit:10" /><path
       class="st1"
       d="m 185.73,155.56 c 11.91,-1.22 25.82,-0.95 34.02,9.13 5.45,6.71 7.13,15.61 9.25,23.99 2.89,11.42 8.49,20.99 19.47,26.21 7.72,3.67 16.42,5.09 24.81,6.29"
       id="path74"
       inkscape:connector-curvature="0"
       style="fill:none;stroke:#000000;stroke-width:0.25;stroke-miterlimit:10" /></g></svg>