<?xml version="1.0" encoding="utf-8"?>
<!-- Generator: Adobe Illustrator 23.0.3, SVG Export Plug-In . SVG Version: 6.00 Build 0)  -->
<svg version="1.1"
	 id="Layer_1" inkscape:version="0.92.2 5c3e80d, 2017-08-06" sodipodi:docname="powerswitch-tail.svg" xmlns:cc="http://creativecommons.org/ns#" xmlns:dc="http://purl.org/dc/elements/1.1/" xmlns:inkscape="http://www.inkscape.org/namespaces/inkscape" xmlns:rdf="http://www.w3.org/1999/02/22-rdf-syntax-ns#" xmlns:sodipodi="http://sodipodi.sourceforge.net/DTD/sodipodi-0.dtd" xmlns:svg="http://www.w3.org/2000/svg"
	 xmlns="http://www.w3.org/2000/svg" xmlns:xlink="http://www.w3.org/1999/xlink" x="0px" y="0px" viewBox="0 0 546.1 214.1"
	 style="enable-background:new 0 0 546.1 214.1;" xml:space="preserve">
<style type="text/css">
	.st0{fill:#FFFFFF;stroke:#000000;stroke-miterlimit:10;}
</style>
<sodipodi:namedview  bordercolor="#666666" borderopacity="1" gridtolerance="10" guidetolerance="10" id="namedview123" inkscape:current-layer="Layer_1" inkscape:cx="107.98" inkscape:cy="314.37218" inkscape:pageopacity="0" inkscape:pageshadow="2" inkscape:window-height="480" inkscape:window-maximized="0" inkscape:window-width="640" inkscape:window-x="0" inkscape:window-y="0" inkscape:zoom="0.32777778" objecttolerance="10" pagecolor="#ffffff" showgrid="false">
	</sodipodi:namedview>
<path id="path120" inkscape:connector-curvature="0" class="st0" d="M545.9,70.7c-0.7-14.8-10-44.4-27.2-45.6v-4.8L482.1,2.6h-66.9
	v64.8h66.5l37.1-18.8v-7.5c8.9,3,11.5,14.7,12.2,30.3c1,22.4-5.9,42.6-18.6,54.1c-10.8,9.7-26,7.8-29.7,6.8v-20.9h-73V75.6
	c0-6.6-5.4-12-12-12h-264c-6.6,0-12,5.4-12,12v35.8h-73v21.8c-4.1,0.8-4.3-0.6-15-10.3C21,111.4,14.1,91.2,15.1,68.8
	c0.7-15.7,7.9-29.5,15.2-30.3V46l37.1,18.8h46.5v-9.3h50.2c1.1-2.9,1.7-2.1,1.7-5.6c0-3-0.5-1.8-1.3-4.4c-0.1,0-2.7,0-2.7,0h-47.9
	V31.4h50.2c1.1-2.9,1.7-6.1,1.7-9.6c0-3-0.5-5.8-1.3-8.4c-0.1,0-2.7,0-2.7,0h-47.9V0H67L30.3,17.6v4.8C13.1,23.6,0.8,53.3,0.1,68.1
	C-1.1,95,7.7,119.6,23.6,134c12,10.8,21.7,15,25.1,14.3v18h73v35.8c0,6.6,5.4,12,12,12h263.9c6.6,0,12-5.4,12-12v-35.8h73v-19.5
	c4.6,1.6,1.2,2.7,19-0.6c9-1.6,12.3-2.5,24.3-13.3C541.9,118.7,547.1,97.6,545.9,70.7z"/>
</svg>
