<?xml version="1.0" encoding="utf-8"?>
<!-- Generator: Adobe Illustrator 23.0.3, SVG Export Plug-In . SVG Version: 6.00 Build 0)  -->
<svg version="1.1"
	 id="Layer_1" inkscape:version="0.92.2 5c3e80d, 2017-08-06" sodipodi:docname="powerswitch-tail.svg" xmlns:cc="http://creativecommons.org/ns#" xmlns:dc="http://purl.org/dc/elements/1.1/" xmlns:inkscape="http://www.inkscape.org/namespaces/inkscape" xmlns:rdf="http://www.w3.org/1999/02/22-rdf-syntax-ns#" xmlns:sodipodi="http://sodipodi.sourceforge.net/DTD/sodipodi-0.dtd" xmlns:svg="http://www.w3.org/2000/svg"
	 xmlns="http://www.w3.org/2000/svg" xmlns:xlink="http://www.w3.org/1999/xlink" x="0px" y="0px" viewBox="0 0 628 214.1"
	 style="enable-background:new 0 0 628 214.1;" xml:space="preserve">
<style type="text/css">
	.st0{fill:#FFFFFF;stroke:#000000;stroke-miterlimit:10;}
</style>
<sodipodi:namedview  bordercolor="#666666" borderopacity="1" gridtolerance="10" guidetolerance="10" id="namedview123" inkscape:current-layer="Layer_1" inkscape:cx="107.98" inkscape:cy="314.37218" inkscape:pageopacity="0" inkscape:pageshadow="2" inkscape:window-height="480" inkscape:window-maximized="0" inkscape:window-width="640" inkscape:window-x="0" inkscape:window-y="0" inkscape:zoom="0.32777778" objecttolerance="10" pagecolor="#ffffff" showgrid="false">
	</sodipodi:namedview>
<path id="path120" inkscape:connector-curvature="0" class="st0" d="M627.9,70.7c-0.7-14.8-10-44.4-27.2-45.6v-4.8L564.1,2.6h-66.9
	v64.8h66.5l37.1-18.8v-7.5c8.9,3,11.5,14.7,12.2,30.3c1,22.4-5.9,42.6-18.6,54.1c-10.8,9.7-25.2,13.8-43,12.2
	c-11.7-1.1-24-4.4-27.7-5.4v-20.9h-73V75.6c0-6.6-5.4-12-12-12H174.7c-6.6,0-12,5.4-12,12v35.8h-73v21.8c-4.1,0.8-8.6,1.5-13,1.9
	c-17.8,1.6-32.3-2.5-43-12.2C21,111.4,14.1,91.2,15.1,68.8c0.7-15.7,4.9-29.5,12.2-30.3V46l37.1,18.8h46.5v-9.3h50.2
	c1.1-2.9,1.7-2.1,1.7-5.6c0-3-0.5-1.8-1.3-4.4c-0.1,0-2.7,0-2.7,0h-47.9V31.4h50.2c1.1-2.9,1.7-6.1,1.7-9.6c0-3-0.5-5.8-1.3-8.4
	c-0.1,0-2.7,0-2.7,0h-47.9V0L64,0L27.3,17.6v4.8C10.1,23.6,0.8,53.3,0.1,68.1c-1.2,26.9,7.6,51.5,23.5,65.9
	c12,10.8,27.8,16.4,46,16.4c2.9,0,5.8-0.1,8.9-0.4c4-0.4,7.8-1,11.2-1.7v18h73v35.8c0,6.6,5.4,12,12,12h263.9c6.6,0,12-5.4,12-12
	v-35.8h73v-19.5c4.6,1.6,14.2,4.6,25.9,5.7c3,0.3,6,0.4,8.9,0.4c18.2,0,34-5.6,46-16.4C620.3,122.2,629.1,97.6,627.9,70.7z"/>
</svg>
