<?xml version="1.0" encoding="utf-8"?>
<!-- Generator: Adobe Illustrator 23.0.6, SVG Export Plug-In . SVG Version: 6.00 Build 0)  -->
<svg version="1.1"
	 id="Layer_1" xmlns:cc="http://creativecommons.org/ns#" xmlns:dc="http://purl.org/dc/elements/1.1/" xmlns:inkscape="http://www.inkscape.org/namespaces/inkscape" xmlns:rdf="http://www.w3.org/1999/02/22-rdf-syntax-ns#" xmlns:sodipodi="http://sodipodi.sourceforge.net/DTD/sodipodi-0.dtd" xmlns:svg="http://www.w3.org/2000/svg"
	 xmlns="http://www.w3.org/2000/svg" xmlns:xlink="http://www.w3.org/1999/xlink" x="0px" y="0px" viewBox="0 0 422.6 183.8"
	 style="enable-background:new 0 0 422.6 183.8;" xml:space="preserve">
<style type="text/css">
	.st0{fill:#FFFFFF;stroke:#000000;stroke-miterlimit:10;}
	.st1{fill:#FFFFFF;stroke:#010101;stroke-miterlimit:10;}
</style>
<g>
	<path class="st0" d="M273.7-6.3c-5.9,8.6-29.6,15.3-45.3,19.7c-7.3,2.1-13.7,3.6-17.7,5.6c-10.2,4.9-15,8.6-18,25.1
		c-1,5.5-0.2,11.2,2.1,16.3c-0.2,0.4-0.4,0.7-0.6,1.1c-5.8,10.8-5.4,22.4,1.2,31.8c15.7,22.3,37.3,16.8,56.4,8.5
		c8.4-3.7,7.6-2.2,15.5-10.4l-0.5-13.9c-7.2,7.4-12.6,11.7-19.2,14.6c-19.5,8.5-32.8,10.4-43.6-4.9c-4.4-6.2-3.7-12.5-2.2-17
		c0.3,0.3,0.6,0.5,0.9,0.8c7.7,6.7,17.8,8.9,26.8,5.8c9.1-3.1,14.2-10.3,13-18.4c-1.3-8.9-9.6-15.4-20-15.7
		c-6.7-0.2-13.8,2.8-19.7,7.9c-0.2-1.6-0.1-3.1,0.2-4.6c2.4-12.9,3.3-13.3,11.7-17.3c3.5-1.7,9.6-3.2,16.5-5.1
		c19.2-5.4,43.1-12.1,51.1-23.9C290.1-11.6,279.2-14.4,273.7-6.3z"/>
	<path class="st0" d="M222.2,53.2c5.9,0.2,9.4,3.5,9.9,6.7c0.4,3-1.7,5.5-6,6.9c-5.5,1.8-11.7,0.4-16.6-3.8
		c-0.8-0.7-1.5-1.4-2.1-2.1C211.8,56.1,217.4,53,222.2,53.2z"/>
</g>
<sodipodi:namedview  bordercolor="#666666" borderopacity="1" gridtolerance="10" guidetolerance="10" id="namedview101" inkscape:current-layer="Layer_1" inkscape:cx="61.29" inkscape:cy="59.37" inkscape:pageopacity="0" inkscape:pageshadow="2" inkscape:window-height="480" inkscape:window-maximized="0" inkscape:window-width="640" inkscape:window-x="0" inkscape:window-y="0" inkscape:zoom="0.65555556" objecttolerance="10" pagecolor="#ffffff" showgrid="false">
	</sodipodi:namedview>
<circle class="st1" cx="98.3" cy="91.9" r="75.4"/>
<g>
	<ellipse class="st1" cx="384.9" cy="98.4" rx="11" ry="56.2"/>
	<path class="st1" d="M268.4,154.6c-6.1,0-11-25.2-11-56.2s4.9-56.2,11-56.2"/>
	<line class="st1" x1="384.9" y1="154.6" x2="268.4" y2="154.6"/>
	<line class="st1" x1="384.9" y1="42.2" x2="268.4" y2="42.2"/>
	<path class="st1" d="M387,89.8c-0.6,1.2-1.1,4.6-1.1,8.6s0.5,7.3,1.1,8.6v0.5h22.2v0c0.9-0.2,1.6-4.2,1.6-9.1s-0.7-8.8-1.6-9.1v0
		H387V89.8z"/>
</g>
</svg>
