<?xml version="1.0" encoding="UTF-8" standalone="no"?>
<!-- Generator: Adobe Illustrator 23.0.3, SVG Export Plug-In . SVG Version: 6.00 Build 0)  -->

<svg
   xmlns:dc="http://purl.org/dc/elements/1.1/"
   xmlns:cc="http://creativecommons.org/ns#"
   xmlns:rdf="http://www.w3.org/1999/02/22-rdf-syntax-ns#"
   xmlns:svg="http://www.w3.org/2000/svg"
   xmlns="http://www.w3.org/2000/svg"
   xmlns:sodipodi="http://sodipodi.sourceforge.net/DTD/sodipodi-0.dtd"
   xmlns:inkscape="http://www.inkscape.org/namespaces/inkscape"
   version="1.1"
   id="Layer_1"
   x="0px"
   y="0px"
   viewBox="0 0 195.12 517.17621"
   xml:space="preserve"
   sodipodi:docname="12v-5a-dc.svg"
   width="195.12"
   height="517.17621"
   inkscape:version="0.92.2 5c3e80d, 2017-08-06"><metadata
     id="metadata28"><rdf:RDF><cc:Work
         rdf:about=""><dc:format>image/svg+xml</dc:format><dc:type
           rdf:resource="http://purl.org/dc/dcmitype/StillImage" /></cc:Work></rdf:RDF></metadata><defs
     id="defs26" /><sodipodi:namedview
     pagecolor="#ffffff"
     bordercolor="#666666"
     borderopacity="1"
     objecttolerance="10"
     gridtolerance="10"
     guidetolerance="10"
     inkscape:pageopacity="0"
     inkscape:pageshadow="2"
     inkscape:window-width="640"
     inkscape:window-height="480"
     id="namedview24"
     showgrid="false"
     inkscape:zoom="0.32777778"
     inkscape:cx="99.48"
     inkscape:cy="257.46218"
     inkscape:window-x="0"
     inkscape:window-y="0"
     inkscape:window-maximized="0"
     inkscape:current-layer="Layer_1" /><style
     type="text/css"
     id="style13">
	.st0{fill:#FFFFFF;stroke:#000000;stroke-miterlimit:10;}
</style><g
     id="g21"
     transform="translate(-116.52,-100.28597)"><path
       class="st0"
       d="m 261.77,169.43 c 0.12,-3.26 0.05,-4.99 -1.88,-8.46 -1.46,-2.63 -4.79,-5.64 -11.04,-9.26 -6.31,-3.65 -50.95,-25.65 -53.44,-30.64 -1.64,-3.29 -0.68,-5.06 -0.37,-5.64 1.76,-3.25 7.42,-5.79 14.79,-6.64 l -0.92,-7.95 c -10.22,1.18 -17.84,5.11 -20.91,10.78 -1.49,2.74 -2.65,7.23 0.25,13.02 3.56,7.13 49,29.59 56.59,33.98 3.1,1.79 6.01,3.99 7.06,5.22 0.91,1.07 1.62,2.69 1.7,5.59 l -50.91,0.11 V 527.1 l 47.51,0.12 c 0.79,4.09 1.51,8.59 1.91,13.01 1.59,17.8 -2.52,32.28 -12.23,43.03 -11.43,12.67 -31.64,19.62 -54.07,18.6 -15.66,-0.71 -29.52,-4.87 -30.31,-12.22 h 7.5 l 18.84,-37.13 v -46.45 h -9.29 v -50.18 c -2.87,-1.12 -2.13,-1.71 -5.64,-1.71 -3.02,0 -1.79,0.46 -4.36,1.3 0,0.08 -0.01,2.66 -0.01,2.66 v 47.92 h -14.11 v -50.18 c -2.87,-1.12 -6.13,-1.71 -9.64,-1.71 -3.02,0 -5.79,0.46 -8.36,1.3 0,0.08 -0.01,2.66 -0.01,2.66 v 47.92 h -13.4 V 553 l 17.64,36.65 h 4.81 c 1.19,17.19 30.8,26.53 45.63,27.2 26.86,1.22 51.49,-7.58 65.89,-23.54 10.82,-11.98 16.42,-27.76 16.42,-46.01 0,-2.9 -0.14,-5.85 -0.42,-8.87 -0.38,-4.02 -0.98,-7.79 -1.66,-11.2 l 45.81,0.12 V 169.32 Z"
       id="path15"
       inkscape:connector-curvature="0"
       style="fill:#ffffff;stroke:#000000;stroke-miterlimit:10" /><path
       class="st0"
       d="m 209.16,102.95 c 0,0 11.13,-0.59 13.81,-2.11"
       id="path17"
       inkscape:connector-curvature="0"
       style="fill:#ffffff;stroke:#000000;stroke-miterlimit:10" /><path
       class="st0"
       d="m 209.51,106.01 c 0,0 8.33,-0.65 11.75,0"
       id="path19"
       inkscape:connector-curvature="0"
       style="fill:#ffffff;stroke:#000000;stroke-miterlimit:10" /></g></svg>