<?xml version="1.0" encoding="utf-8"?>
<!-- Generator: Adobe Illustrator 23.0.3, SVG Export Plug-In . SVG Version: 6.00 Build 0)  -->
<svg version="1.1"
	 id="Layer_1" inkscape:version="0.92.2 5c3e80d, 2017-08-06" sodipodi:docname="12v-5a-dc.svg" xmlns:cc="http://creativecommons.org/ns#" xmlns:dc="http://purl.org/dc/elements/1.1/" xmlns:inkscape="http://www.inkscape.org/namespaces/inkscape" xmlns:rdf="http://www.w3.org/1999/02/22-rdf-syntax-ns#" xmlns:sodipodi="http://sodipodi.sourceforge.net/DTD/sodipodi-0.dtd" xmlns:svg="http://www.w3.org/2000/svg"
	 xmlns="http://www.w3.org/2000/svg" xmlns:xlink="http://www.w3.org/1999/xlink" x="0px" y="0px" viewBox="0 0 180.6 517.2"
	 style="enable-background:new 0 0 180.6 517.2;" xml:space="preserve">
<style type="text/css">
	.st0{fill:#FFFFFF;stroke:#000000;stroke-miterlimit:10;}
</style>
<sodipodi:namedview  bordercolor="#666666" borderopacity="1" gridtolerance="10" guidetolerance="10" id="namedview24" inkscape:current-layer="Layer_1" inkscape:cx="99.48" inkscape:cy="257.46218" inkscape:pageopacity="0" inkscape:pageshadow="2" inkscape:window-height="480" inkscape:window-maximized="0" inkscape:window-width="640" inkscape:window-x="0" inkscape:window-y="0" inkscape:zoom="0.32777778" objecttolerance="10" pagecolor="#ffffff" showgrid="false">
	</sodipodi:namedview>
<g id="g21" transform="translate(-116.52,-100.28597)">
	<path id="path15" inkscape:connector-curvature="0" class="st0" d="M247.3,169.4c0.1-3.3,0-5-1.9-8.5c-1.5-2.6-4.8-5.6-11-9.3
		c-6.3-3.6-50.9-25.7-53.4-30.6c-1.6-3.3-0.7-5.1-0.4-5.6c1.8-3.2,7.4-5.8,14.8-6.6l-0.9-7.9c-10.2,1.2-17.8,5.1-20.9,10.8
		c-1.5,2.7-2.6,7.2,0.2,13c3.6,7.1,49,29.6,56.6,34c3.1,1.8,6,4,7.1,5.2c0.9,1.1,1.6,2.7,1.7,5.6l-50.9,0.1v357.6l47.5,0.1
		c0.8,4.1,1.5,8.6,1.9,13c1.6,17.8-2.5,32.3-12.2,43c-11.4,12.7-17.6,19.6-40.1,18.6c-15.7-0.7-29.5-4.9-30.3-12.2h7.5l18.8-37.1
		v-46.5H172v-50.2c-2.9-1.1-2.1-1.7-5.6-1.7c-3,0-1.8,0.5-4.4,1.3c0,0.1,0,2.7,0,2.7V506h-14.1v-50.2c-2.9-1.1-6.1-1.7-9.6-1.7
		c-3,0-5.8,0.5-8.4,1.3c0,0.1,0,2.7,0,2.7V506h-13.4v47l17.6,36.7h4.8c1.2,17.2,30.8,26.5,45.6,27.2c26.9,1.2,37.5-7.6,51.9-23.5
		c10.8-12,16.4-27.8,16.4-46c0-2.9-0.1-5.8-0.4-8.9c-0.4-4-1-7.8-1.7-11.2l45.8,0.1v-358L247.3,169.4z"/>
	<path id="path17" inkscape:connector-curvature="0" class="st0" d="M194.7,102.9c0,0,11.1-0.6,13.8-2.1"/>
	<path id="path19" inkscape:connector-curvature="0" class="st0" d="M195,106c0,0,8.3-0.7,11.8,0"/>
</g>
</svg>
