<?xml version="1.0" encoding="utf-8"?>
<!-- Generator: Adobe Illustrator 23.0.6, SVG Export Plug-In . SVG Version: 6.00 Build 0)  -->
<svg version="1.1"
	 id="Layer_1" xmlns:cc="http://creativecommons.org/ns#" xmlns:dc="http://purl.org/dc/elements/1.1/" xmlns:inkscape="http://www.inkscape.org/namespaces/inkscape" xmlns:rdf="http://www.w3.org/1999/02/22-rdf-syntax-ns#" xmlns:sodipodi="http://sodipodi.sourceforge.net/DTD/sodipodi-0.dtd" xmlns:svg="http://www.w3.org/2000/svg"
	 xmlns="http://www.w3.org/2000/svg" xmlns:xlink="http://www.w3.org/1999/xlink" x="0px" y="0px" viewBox="0 0 152.5 262.6"
	 style="enable-background:new 0 0 152.5 262.6;" xml:space="preserve">
<style type="text/css">
	.st0{fill:#FFFFFF;stroke:#000000;stroke-miterlimit:10;}
</style>
<sodipodi:namedview  bordercolor="#666666" borderopacity="1" gridtolerance="10" guidetolerance="10" id="namedview68" inkscape:current-layer="Layer_1" inkscape:cx="74.589604" inkscape:cy="120.73" inkscape:pageopacity="0" inkscape:pageshadow="2" inkscape:window-height="480" inkscape:window-maximized="0" inkscape:window-width="640" inkscape:window-x="0" inkscape:window-y="0" inkscape:zoom="0.65555556" objecttolerance="10" pagecolor="#ffffff" showgrid="false">
	</sodipodi:namedview>
<path id="path65" inkscape:connector-curvature="0" class="st0" d="M29.1,196.2c4.9,0.1,9.5,1.8,11.8,4.7c2.8,3.5,2.7,7.2,1.1,9.1
	c-1.5,1.7-4,1.7-7,0c-3.8-2.2-6.1-6.5-6.1-11.4C28.9,197.8,29,197,29.1,196.2z"/>
<path class="st0" d="M90.3,147c5.5,0,5-2.4,5-9V45.3h49.9c1.1-2.9,1.7-6.1,1.7-9.6c0-3-0.5-5.8-1.3-8.4c-0.1,0-2.7,0-2.7,0H95V11.8
	c0-6.6-0.7-9.6-5.9-9.6H22.9c-6.6,0-12,3.9-12,12c0,36.8,7.9,43,8.8,62.3c0.9,19.3,2.2,58.7,2.2,58.7c0,6.6,5.4,12,12,12l34.9-0.2
	c-0.2,3.9-0.3,6,1.8,9.8c1.5,2.6,4.8,5.6,11,9.3c6.3,3.6,30.9,17.6,33.4,22.6c1.6,3.3,0.7,5.1,0.4,5.6c-1.8,3.2-7.4,5.8-14.8,6.6
	c-7.9,0.9-23.5-9.4-33.9-16.2c-4.8-3.2-8.9-6.1-12-7.4c-7.9-3.4-12.4-4.4-23.4,2.1c-3.7,2.2-6.5,5.4-8.3,9.3
	c-0.3,0.1-0.6,0.1-0.9,0.2c-9.1,2-15.6,8.1-17.6,16.5c-5,20.1,8.9,29.8,23.2,36.6c6.3,3,15.3,4.3,23.9,4.8v4.7l23.2,0.1l6.2,6.9
	l50.3,0.3l0-4.7l16.8,0.2l0.2-21.8l-16.8-0.2l0-4.5l-50.3-0.3l-6,6.8l-23.6-0.2v4.6c-7.8-0.5-15.5-1.6-20.4-4
	c-14.6-7-22.3-13.7-18.9-27.5c1.4-5.6,5.3-8.4,8.7-9.7c0,0.3,0,0.6,0,0.9c0,7.8,3.7,14.6,10,18.3s13,3.1,17.1-1.7
	c4.5-5.2,4.1-13.2-0.9-19.3c-3.2-3.9-8.5-6.5-14.3-7.4c0.8-0.9,1.7-1.6,2.8-2.2c8.6-5.1,9.3-4.7,15.8-1.9c2.7,1.2,6.6,3.9,11.2,6.9
	c12.7,8.4,28.4,18.8,39.2,17.5c10.2-1.2,17.8-5.1,20.9-10.8c1.5-2.7,2.7-7.2-0.2-13c-3.6-7.1-29-21.6-36.6-26c-3.1-1.8-6-4-7.1-5.2
	c-1-1.2-1.8-3.4-1.7-6.9L90.3,147z"/>
</svg>
