<?xml version="1.0" encoding="UTF-8" standalone="no"?>
<!-- Generator: Adobe Illustrator 23.0.3, SVG Export Plug-In . SVG Version: 6.00 Build 0)  -->

<svg
   xmlns:dc="http://purl.org/dc/elements/1.1/"
   xmlns:cc="http://creativecommons.org/ns#"
   xmlns:rdf="http://www.w3.org/1999/02/22-rdf-syntax-ns#"
   xmlns:svg="http://www.w3.org/2000/svg"
   xmlns="http://www.w3.org/2000/svg"
   xmlns:sodipodi="http://sodipodi.sourceforge.net/DTD/sodipodi-0.dtd"
   xmlns:inkscape="http://www.inkscape.org/namespaces/inkscape"
   version="1.1"
   id="Layer_1"
   x="0px"
   y="0px"
   viewBox="0 0 152.54961 261.47"
   xml:space="preserve"
   sodipodi:docname="8.4v-1a-dc.svg"
   width="152.54961"
   height="261.47"
   inkscape:version="0.92.2 5c3e80d, 2017-08-06"><metadata
     id="metadata61"><rdf:RDF><cc:Work
         rdf:about=""><dc:format>image/svg+xml</dc:format><dc:type
           rdf:resource="http://purl.org/dc/dcmitype/StillImage" /></cc:Work></rdf:RDF></metadata><defs
     id="defs59" /><sodipodi:namedview
     pagecolor="#ffffff"
     bordercolor="#666666"
     borderopacity="1"
     objecttolerance="10"
     gridtolerance="10"
     guidetolerance="10"
     inkscape:pageopacity="0"
     inkscape:pageshadow="2"
     inkscape:window-width="640"
     inkscape:window-height="480"
     id="namedview57"
     showgrid="false"
     inkscape:zoom="0.65555556"
     inkscape:cx="75.489604"
     inkscape:cy="130.71"
     inkscape:window-x="0"
     inkscape:window-y="0"
     inkscape:window-maximized="0"
     inkscape:current-layer="Layer_1" /><style
     type="text/css"
     id="style52">
	.st0{fill:#FFFFFF;stroke:#000000;stroke-miterlimit:10;}
</style><path
     class="st0"
     d="m 150.3396,43.55 c 1.12,-2.87 1.71,-6.13 1.71,-9.64 0,-3.02 -0.46,-5.79 -1.3,-8.36 -0.08,0 -2.66,-0.01 -2.66,-0.01 h -47.92 l 0.02,-15.48 c 0,-6.6 -0.679996,-9.56 -5.929996,-9.56 h -66.25 c -6.6,0 -12,3.89 -12,12 0,36.77 7.91,42.96 8.79,62.28 0.87,19.21 2.21,58.62 2.21,58.62 0,6.6 5.4,12 12,12 h 26.8 c -0.16,3.89 -0.26,5.59 1.84,9.36 1.46,2.63 4.79,5.64 11.04,9.26 6.31,3.65 30.949996,25.65 33.439996,30.64 1.64,3.29 0.68,5.06 0.37,5.64 -1.76,3.25 -7.42,5.79 -14.789996,6.64 -7.86,0.91 -23.51,-9.4 -33.86,-16.23 -4.8,-3.16 -8.86,-6.07 -12.01,-7.43 -7.92,-3.41 -12.43,-4.35 -23.4,2.13 -3.66,2.16 -6.54,5.45 -8.34,9.34 -0.3,0.06 -0.61,0.12 -0.91,0.19 -9.11,2.03 -15.5499999,8.05 -17.6499999,16.5 -5.02,20.14 8.9099999,29.83 23.2099999,36.65 6.26,2.99 15.27,4.29 23.89,4.78 v 8.1 H 120.6396 v -3.67 h 28.72 v -15.12 h -28.72 v -4.25 H 48.639604 v 6.92 c -7.78,-0.47 -15.47,-1.6 -20.44,-3.97 -14.57,-6.96 -22.3299999,-13.68 -18.8899999,-27.5 1.3999999,-5.6 5.3099999,-8.36 8.6699999,-9.71 -0.01,0.29 -0.02,0.59 -0.02,0.89 0,7.78 3.73,14.62 9.99,18.32 6.3,3.72 13,3.07 17.08,-1.67 4.48,-5.21 4.1,-13.16 -0.92,-19.33 -3.2,-3.93 -8.47,-6.52 -14.34,-7.35 0.81,-0.87 1.73,-1.62 2.75,-2.22 8.59,-5.07 9.27,-4.74 15.75,-1.87 2.7,1.2 6.6,3.93 11.18,6.95 12.66,8.35 28.42,18.75 39.18,17.5 10.219996,-1.18 17.839996,-5.11 20.909996,-10.78 1.49,-2.74 2.65,-7.23 -0.25,-13.02 -3.56,-7.13 -28.999996,-29.59 -36.589996,-33.98 -3.1,-1.79 -6.01,-3.99 -7.06,-5.22 -1,-1.17 -1.77,-3 -1.71,-6.48 h 21.24 c 5.489996,0 4.999996,-2.4 4.999996,-9 V 43.55 Z M 26.119604,202.26 c 4.88,0.11 9.47,1.83 11.78,4.67 2.83,3.47 2.67,7.18 1.06,9.06 -1.49,1.73 -4.02,1.73 -6.95,0 -3.79,-2.24 -6.06,-6.51 -6.06,-11.43 0,-0.77 0.06,-1.54 0.17,-2.3 z"
     id="path54"
     inkscape:connector-curvature="0"
     style="fill:#ffffff;stroke:#000000;stroke-miterlimit:10" /></svg>