<?xml version="1.0" encoding="UTF-8" standalone="no"?>
<!-- Generator: Adobe Illustrator 23.0.3, SVG Export Plug-In . SVG Version: 6.00 Build 0)  -->

<svg
   xmlns:dc="http://purl.org/dc/elements/1.1/"
   xmlns:cc="http://creativecommons.org/ns#"
   xmlns:rdf="http://www.w3.org/1999/02/22-rdf-syntax-ns#"
   xmlns:svg="http://www.w3.org/2000/svg"
   xmlns="http://www.w3.org/2000/svg"
   xmlns:sodipodi="http://sodipodi.sourceforge.net/DTD/sodipodi-0.dtd"
   xmlns:inkscape="http://www.inkscape.org/namespaces/inkscape"
   version="1.1"
   id="Layer_1"
   x="0px"
   y="0px"
   viewBox="0 0 192.30701 113.43013"
   xml:space="preserve"
   sodipodi:docname="usb-c-microb.svg"
   width="192.30701"
   height="113.43013"
   inkscape:version="0.92.2 5c3e80d, 2017-08-06"><metadata
     id="metadata105"><rdf:RDF><cc:Work
         rdf:about=""><dc:format>image/svg+xml</dc:format><dc:type
           rdf:resource="http://purl.org/dc/dcmitype/StillImage" /></cc:Work></rdf:RDF></metadata><defs
     id="defs103" /><sodipodi:namedview
     pagecolor="#ffffff"
     bordercolor="#666666"
     borderopacity="1"
     objecttolerance="10"
     gridtolerance="10"
     guidetolerance="10"
     inkscape:pageopacity="0"
     inkscape:pageshadow="2"
     inkscape:window-width="640"
     inkscape:window-height="480"
     id="namedview101"
     showgrid="false"
     inkscape:zoom="0.65555556"
     inkscape:cx="95.059604"
     inkscape:cy="57.11626"
     inkscape:window-x="0"
     inkscape:window-y="0"
     inkscape:window-maximized="0"
     inkscape:current-layer="Layer_1" /><style
     type="text/css"
     id="style96">
	.st0{fill:#FFFFFF;stroke:#000000;stroke-miterlimit:10;}
</style><path
     class="st0"
     d="m 180.8196,30.253869 2.03,-3.75 -45.02,-24.3200002 -4.52,8.3600002 -0.68,1.28 c -1.08,-0.79 -2.24,-1.77 -3.43,-2.7900002 -4.64,-3.97 -10.43,-8.92000002 -18.72,-8.51000002 -5.64,0.27 -10.09,2.83000002 -12.529996,7.21000002 -2.38,4.2700002 -2.5,9.8000002 -0.3,13.7600002 1.46,2.63 4.789996,4.64 11.039996,8.26 6.31,3.65 14.95,8.65 17.44,13.64 1.64,3.29 0.68,5.06 0.37,5.64 -1.76,3.25 -7.42,5.79 -14.79,6.64 -7.86,0.91 -23.509996,-9.4 -33.859996,-16.23 -4.8,-3.16 -8.94,-5.9 -12.01,-7.43 -12.79,-6.4 -26.43,-6.35 -37.4,0.13 -3.66,2.16 -6.54,5.45 -8.34,9.34 -0.3,0.06 -0.61,0.12 -0.91,0.19 -9.11,2.03 -15.5499999,8.05 -17.6499999,16.5 -5.02,20.14 8.9099999,29.83 23.2099999,36.65 8.59,4.1 22.4,5.04 33.21,5.04 4.85,0 9.1,-0.19 12,-0.36 l 0.38,13.410001 60.129996,-1.98 -0.16,-4.84 16.77,-0.55 -0.77,-23.440001 -16.77,0.55 -0.16,-4.95 -60.129996,1.98 0.36,11.04 0.03,0.8 c -10.68,0.66 -31.51,0.84 -41.44,-3.9 -14.57,-6.96 -22.3299999,-13.68 -18.8899999,-27.5 1.3999999,-5.6 5.3099999,-8.36 8.6699999,-9.71 -0.01,0.29 -0.02,0.59 -0.02,0.89 0,7.78 3.73,14.62 9.99,18.32 6.3,3.72 13,3.07 17.08,-1.67 4.48,-5.21 4.1,-13.16 -0.92,-19.33 -3.2,-3.93 -8.47,-6.52 -14.34,-7.35 0.81,-0.87 1.73,-1.62 2.75,-2.22 8.59,-5.07 19.43,-5.03 29.75,0.13 2.64,1.32 6.6,3.93 11.18,6.95 12.66,8.35 28.419996,18.75 39.179996,17.5 10.22,-1.18 17.84,-5.11 20.91,-10.78 1.49,-2.74 2.65,-7.23 -0.25,-13.02 -3.56,-7.13 -13,-12.59 -20.59,-16.98 -3.1,-1.79 -7.34,-4.25 -8.06,-5.22 -0.73,-1.31 -0.82,-3.97 0.3,-5.98 1.07,-1.9300002 3.07,-2.9800002 5.92,-3.1100002 5.11,-0.22 9.02,3.0800002 13.15,6.6000002 1.62,1.38 3.19,2.72 4.83,3.82 l -4.6,8.42 45.02,24.32 1.98,-3.67 10.8,5.82 9.59,-17.75 z m -142.919996,23.4 c 2.83,3.47 2.67,7.18 1.06,9.06 -1.49,1.73 -4.02,1.73 -6.95,0 -3.79,-2.24 -6.06,-6.51 -6.06,-11.43 0,-0.78 0.06,-1.55 0.17,-2.3 4.89,0.11 9.47,1.83 11.78,4.67 z"
     id="path98"
     inkscape:connector-curvature="0"
     style="fill:#ffffff;stroke:#000000;stroke-miterlimit:10" /></svg>