<?xml version="1.0" encoding="UTF-8" standalone="no"?>
<!-- Generator: Adobe Illustrator 23.0.3, SVG Export Plug-In . SVG Version: 6.00 Build 0)  -->

<svg
   xmlns:dc="http://purl.org/dc/elements/1.1/"
   xmlns:cc="http://creativecommons.org/ns#"
   xmlns:rdf="http://www.w3.org/1999/02/22-rdf-syntax-ns#"
   xmlns:svg="http://www.w3.org/2000/svg"
   xmlns="http://www.w3.org/2000/svg"
   xmlns:sodipodi="http://sodipodi.sourceforge.net/DTD/sodipodi-0.dtd"
   xmlns:inkscape="http://www.inkscape.org/namespaces/inkscape"
   version="1.1"
   id="Layer_1"
   x="0px"
   y="0px"
   viewBox="0 0 174.55269 163.47144"
   xml:space="preserve"
   sodipodi:docname="usb-a-b.svg"
   width="174.55269"
   height="163.47144"
   inkscape:version="0.92.2 5c3e80d, 2017-08-06"><metadata
     id="metadata83"><rdf:RDF><cc:Work
         rdf:about=""><dc:format>image/svg+xml</dc:format><dc:type
           rdf:resource="http://purl.org/dc/dcmitype/StillImage" /></cc:Work></rdf:RDF></metadata><defs
     id="defs81" /><sodipodi:namedview
     pagecolor="#ffffff"
     bordercolor="#666666"
     borderopacity="1"
     objecttolerance="10"
     gridtolerance="10"
     guidetolerance="10"
     inkscape:pageopacity="0"
     inkscape:pageshadow="2"
     inkscape:window-width="640"
     inkscape:window-height="480"
     id="namedview79"
     showgrid="false"
     inkscape:zoom="0.65555556"
     inkscape:cx="86.499604"
     inkscape:cy="82.36"
     inkscape:window-x="0"
     inkscape:window-y="0"
     inkscape:window-maximized="0"
     inkscape:current-layer="Layer_1" /><style
     type="text/css"
     id="style74">
	.st0{fill:#FFFFFF;stroke:#000000;stroke-miterlimit:10;}
</style><path
     class="st0"
     d="m 82.499604,28.571436 6.18,6.88 50.349996,0.32 0.03,-4.65 34.83,0.22 0.16,-25.8299999 -34.83,-0.22 0.03,-4.47000003 -50.349996,-0.32 -6,6.80000003 -22.84,-0.15 -0.04,6.0499999 c -5.42,0.38 -9.7,2.91 -12.07,7.17 -2.38,4.27 -2.5,9.8 -0.3,13.76 1.46,2.63 4.79,5.64 11.04,9.26 6.31,3.65 50.949996,37.65 53.439996,42.64 1.64,3.29 0.68,5.06 0.37,5.64 -1.76,3.25 -7.42,5.79 -14.789996,6.64 -7.86,0.91 -23.51,-9.4 -33.86,-16.23 -4.8,-3.16 -8.86,-6.07 -12.01,-7.43 -7.92,-3.41 -12.43,-4.35 -23.4,2.13 -3.66,2.16 -6.54,5.45 -8.34,9.34 -0.3,0.06 -0.61,0.12 -0.91,0.19 -9.11,2.03 -15.5499999,8.05 -17.6499999,16.500004 -5.02,20.14 8.9099999,29.83 23.2099999,36.65 6.29,3 15.38,4.31 24.04,4.79 v 11.88 h 22.58 l 6.22,6.84 H 127.9396 v -4.65 h 35.83 v -35.83 h -35.83 v -4.47 H 77.589604 l -5.96,6.84 h -22.84 v 11.37 c -7.84,-0.46 -15.6,-1.6 -20.59,-3.98 -14.57,-6.96 -22.3299999,-13.68 -18.8899999,-27.5 1.3999999,-5.600004 5.3099999,-8.360004 8.6699999,-9.710004 -0.01,0.29 -0.02,0.59 -0.02,0.89 0,7.780004 3.73,14.620004 9.99,18.320004 6.3,3.72 13,3.07 17.08,-1.67 4.48,-5.21 4.1,-13.160004 -0.92,-19.330004 -3.2,-3.93 -8.47,-6.52 -14.34,-7.35 0.81,-0.87 1.73,-1.62 2.75,-2.22 8.59,-5.07 9.27,-4.74 15.75,-1.87 2.7,1.2 6.6,3.93 11.18,6.95 12.66,8.35 28.42,18.750004 39.18,17.500004 10.219996,-1.18 17.839996,-5.11 20.909996,-10.780004 1.49,-2.74 2.65,-7.23 -0.25,-13.02 -3.56,-7.13 -48.999996,-41.59 -56.589996,-45.98 -3.1,-1.79 -7.34,-5.25 -8.06,-6.22 0.01,0.02 -1.56,-2.64 0.3,-5.98 0.96,-1.72 2.65,-2.74 5.03,-3.03 l -0.05,7.2 z m -44.6,69.72 c 2.83,3.470004 2.67,7.180004 1.06,9.060004 -1.49,1.73 -4.02,1.73 -6.95,0 -3.79,-2.24 -6.06,-6.51 -6.06,-11.430004 0,-0.78 0.06,-1.55 0.17,-2.3 4.89,0.11 9.47,1.83 11.78,4.67 z"
     id="path76"
     inkscape:connector-curvature="0"
     style="fill:#ffffff;stroke:#000000;stroke-miterlimit:10" /></svg>