<?xml version="1.0" encoding="utf-8"?>
<!-- Generator: Adobe Illustrator 23.0.3, SVG Export Plug-In . SVG Version: 6.00 Build 0)  -->
<svg version="1.1"
	 id="Layer_1" inkscape:version="0.92.2 5c3e80d, 2017-08-06" sodipodi:docname="usb-c-microb.svg" xmlns:cc="http://creativecommons.org/ns#" xmlns:dc="http://purl.org/dc/elements/1.1/" xmlns:inkscape="http://www.inkscape.org/namespaces/inkscape" xmlns:rdf="http://www.w3.org/1999/02/22-rdf-syntax-ns#" xmlns:sodipodi="http://sodipodi.sourceforge.net/DTD/sodipodi-0.dtd" xmlns:svg="http://www.w3.org/2000/svg"
	 xmlns="http://www.w3.org/2000/svg" xmlns:xlink="http://www.w3.org/1999/xlink" x="0px" y="0px" viewBox="0 0 180.8 113.4"
	 style="enable-background:new 0 0 180.8 113.4;" xml:space="preserve">
<style type="text/css">
	.st0{fill:#FFFFFF;stroke:#000000;stroke-miterlimit:10;}
</style>
<sodipodi:namedview  bordercolor="#666666" borderopacity="1" gridtolerance="10" guidetolerance="10" id="namedview101" inkscape:current-layer="Layer_1" inkscape:cx="95.059604" inkscape:cy="57.11626" inkscape:pageopacity="0" inkscape:pageshadow="2" inkscape:window-height="480" inkscape:window-maximized="0" inkscape:window-width="640" inkscape:window-x="0" inkscape:window-y="0" inkscape:zoom="0.65555556" objecttolerance="10" pagecolor="#ffffff" showgrid="false">
	</sodipodi:namedview>
<path id="path98" inkscape:connector-curvature="0" class="st0" d="M169.3,30.3l2-3.8l-45-24.3l-4.5,8.4l-0.7,1.3
	c-1.1-0.8-2.2-1.8-3.4-2.8c-4.6-4-10.4-8.9-18.7-8.5c-5.6,0.3-10.1,2.8-12.5,7.2c-2.4,4.3-2.5,9.8-0.3,13.8c1.5,2.6,4.8,4.6,11,8.3
	c6.3,3.6,14.9,8.6,17.4,13.6c1.6,3.3,0.7,5.1,0.4,5.6c-1.8,3.2-7.4,5.8-14.8,6.6c-7.9,0.9-23.5-9.4-33.9-16.2
	c-4.8-3.2-8.9-5.9-12-7.4c-13.7-5.1-16.7-4.6-27.4,0.1c-3.7,2.2-6.5,5.5-8.3,9.3c-0.3,0.1-0.6,0.1-0.9,0.2c-9.1,2-15.6,8-17.6,16.5
	C-5,78.3,8.9,88,23.2,94.8c8.6,4.1,12.4,5,23.2,5c4.8,0,9.1-0.2,12-0.4l0.4,13.4l60.1-2l-0.2-4.8l16.8-0.6l-0.8-23.4L118,82.7
	l-0.2-4.9l-60.1,2l0.4,11l0,0.8c-10.7,0.7-21.5,0.8-31.4-3.9c-14.6-7-22.3-13.7-18.9-27.5c1.4-5.6,5.3-8.4,8.7-9.7
	c0,0.3,0,0.6,0,0.9c0,7.8,3.7,14.6,10,18.3c6.3,3.7,13,3.1,17.1-1.7c4.5-5.2,4.1-13.2-0.9-19.3c-3.2-3.9-8.5-6.5-14.3-7.3
	c0.8-0.9,1.7-1.6,2.8-2.2c7.6-3.6,10.1-3.2,19.7,0.1c2.6,1.3,6.6,3.9,11.2,7c12.7,8.3,28.4,18.8,39.2,17.5
	c10.2-1.2,17.8-5.1,20.9-10.8c1.5-2.7,2.6-7.2-0.2-13c-3.6-7.1-13-12.6-20.6-17c-3.1-1.8-7.3-4.2-8.1-5.2c-0.7-1.3-0.8-4,0.3-6
	c1.1-1.9,3.1-3,5.9-3.1c5.1-0.2,9,3.1,13.2,6.6c1.6,1.4,3.2,2.7,4.8,3.8l-4.6,8.4l45,24.3l2-3.7l10.8,5.8l9.6-17.8L169.3,30.3z
	 M36.4,53.7c2.8,3.5,2.7,7.2,1.1,9.1c-1.5,1.7-4,1.7-6.9,0c-3.8-2.2-6.1-6.5-6.1-11.4c0-0.8,0.1-1.5,0.2-2.3
	C29.5,49.1,34.1,50.8,36.4,53.7z"/>
</svg>
