<?xml version="1.0" encoding="utf-8"?>
<!-- Generator: Adobe Illustrator 23.0.3, SVG Export Plug-In . SVG Version: 6.00 Build 0)  -->
<svg version="1.1"
	 id="Layer_1" xmlns:cc="http://creativecommons.org/ns#" xmlns:dc="http://purl.org/dc/elements/1.1/" xmlns:inkscape="http://www.inkscape.org/namespaces/inkscape" xmlns:rdf="http://www.w3.org/1999/02/22-rdf-syntax-ns#" xmlns:sodipodi="http://sodipodi.sourceforge.net/DTD/sodipodi-0.dtd" xmlns:svg="http://www.w3.org/2000/svg"
	 xmlns="http://www.w3.org/2000/svg" xmlns:xlink="http://www.w3.org/1999/xlink" x="0px" y="0px" viewBox="0 0 174.55 163.47"
	 style="enable-background:new 0 0 174.55 163.47;" xml:space="preserve">
<style type="text/css">
	.st0{fill:#FFFFFF;stroke:#000000;stroke-miterlimit:10;}
</style>
<sodipodi:namedview  bordercolor="#666666" borderopacity="1" gridtolerance="10" guidetolerance="10" id="namedview79" inkscape:current-layer="Layer_1" inkscape:cx="86.499604" inkscape:cy="82.36" inkscape:pageopacity="0" inkscape:pageshadow="2" inkscape:window-height="480" inkscape:window-maximized="0" inkscape:window-width="640" inkscape:window-x="0" inkscape:window-y="0" inkscape:zoom="0.65555556" objecttolerance="10" pagecolor="#ffffff" showgrid="false">
	</sodipodi:namedview>
<path id="path76" inkscape:connector-curvature="0" class="st0" d="M82.5,26.57l6.18,6.88l50.35,0.32l0.03-4.65l16.83,0.22
	l0.16-21.83l-16.83-0.22l0.03-4.47L88.9,2.5l-6,6.8L60.06,9.15l-0.04,4.05c-5.42,0.38-9.7,2.91-12.07,7.17
	c-2.38,4.27-2.5,9.8-0.3,13.76c1.46,2.63,4.79,5.64,11.04,9.26c6.31,3.65,50.95,37.65,53.44,42.64c1.64,3.29,0.68,5.06,0.37,5.64
	c-1.76,3.25-7.42,5.79-14.79,6.64c-7.86,0.91-23.51-9.4-33.86-16.23c-4.8-3.16-8.86-6.07-12.01-7.43
	c-7.92-3.41-12.43-4.35-23.4,2.13c-3.66,2.16-6.54,5.45-8.34,9.34c-0.3,0.06-0.61,0.12-0.91,0.19c-9.11,2.03-15.55,8.05-17.65,16.5
	c-5.02,20.14,8.91,29.83,23.21,36.65c6.29,3,15.38,4.31,24.04,4.79v11.88h22.58l6.22,6.84h50.35v-4.65h35.83v-35.83h-35.83v-4.47
	H77.59l-5.96,6.84H48.79v11.37c-7.84-0.46-15.6-1.6-20.59-3.98c-14.57-6.96-22.33-13.68-18.89-27.5c1.4-5.6,5.31-8.36,8.67-9.71
	c-0.01,0.29-0.02,0.59-0.02,0.89c0,7.78,3.73,14.62,9.99,18.32c6.3,3.72,13,3.07,17.08-1.67c4.48-5.21,4.1-13.16-0.92-19.33
	c-3.2-3.93-8.47-6.52-14.34-7.35c0.81-0.87,1.73-1.62,2.75-2.22c8.59-5.07,9.27-4.74,15.75-1.87c2.7,1.2,6.6,3.93,11.18,6.95
	c12.66,8.35,28.42,18.75,39.18,17.5c10.22-1.18,17.84-5.11,20.91-10.78c1.49-2.74,2.65-7.23-0.25-13.02
	c-3.56-7.13-49-41.59-56.59-45.98c-3.1-1.79-7.34-5.25-8.06-6.22c0.01,0.02-1.56-2.64,0.3-5.98c0.96-1.72,2.65-2.74,5.03-3.03
	l-0.05,5.2L82.5,26.57z M37.9,98.29c2.83,3.47,2.67,7.18,1.06,9.06c-1.49,1.73-4.02,1.73-6.95,0c-3.79-2.24-6.06-6.51-6.06-11.43
	c0-0.78,0.06-1.55,0.17-2.3C31.01,93.73,35.59,95.45,37.9,98.29z"/>
</svg>
