<?xml version="1.0" encoding="UTF-8" standalone="no"?>
<!-- Generator: Adobe Illustrator 23.0.3, SVG Export Plug-In . SVG Version: 6.00 Build 0)  -->

<svg
   xmlns:dc="http://purl.org/dc/elements/1.1/"
   xmlns:cc="http://creativecommons.org/ns#"
   xmlns:rdf="http://www.w3.org/1999/02/22-rdf-syntax-ns#"
   xmlns:svg="http://www.w3.org/2000/svg"
   xmlns="http://www.w3.org/2000/svg"
   xmlns:sodipodi="http://sodipodi.sourceforge.net/DTD/sodipodi-0.dtd"
   xmlns:inkscape="http://www.inkscape.org/namespaces/inkscape"
   version="1.1"
   id="Layer_1"
   x="0px"
   y="0px"
   viewBox="0 0 55.459999 12.001828"
   xml:space="preserve"
   sodipodi:docname="conductive-rubber-cord.svg"
   width="55.459999"
   height="12.001828"
   inkscape:version="0.92.2 5c3e80d, 2017-08-06"><metadata
     id="metadata48"><rdf:RDF><cc:Work
         rdf:about=""><dc:format>image/svg+xml</dc:format><dc:type
           rdf:resource="http://purl.org/dc/dcmitype/StillImage" /></cc:Work></rdf:RDF></metadata><defs
     id="defs46" /><sodipodi:namedview
     pagecolor="#ffffff"
     bordercolor="#666666"
     borderopacity="1"
     objecttolerance="10"
     gridtolerance="10"
     guidetolerance="10"
     inkscape:pageopacity="0"
     inkscape:pageshadow="2"
     inkscape:window-width="640"
     inkscape:window-height="480"
     id="namedview44"
     showgrid="false"
     inkscape:zoom="0.65555556"
     inkscape:cx="27.59"
     inkscape:cy="6.63"
     inkscape:window-x="0"
     inkscape:window-y="0"
     inkscape:window-maximized="0"
     inkscape:current-layer="Layer_1" /><style
     type="text/css"
     id="style39">
	.st0{fill:none;stroke:#010101;stroke-miterlimit:10;}
</style><path
     class="st0"
     d="m 0,11.491828 h 12.79 c 0,0 -2.83,-8.7700001 2.83,-9.9600001 5.65,-1.19000001 6.25,8.4800001 4.02,8.33 -2.23,-0.15 -2.38,-4.02 0,-6.1 2.38,-2.08 5.22,-3.23000001 7.39,-1.53 2.16,1.7 4.07,9.0200001 1.43,7.59 -2.64,-1.43 -0.34,-6.82 3.97,-7.69 4.31,-0.87 6.21,0.7 6.2,2.94 -0.01,3.42 -0.65,4.36 -1.6,4.32 -0.94,-0.04 -2.1,-4.4 -1.34,-6.96 0.46,-1.54000001 3.14,-1.91000001 3.88,-1.93000001 1.99,-0.05 5.18,0.95000001 4.99,5.20000001 -0.19,4.25 -1.4,5.8000001 -1.4,5.8000001 h 12.3"
     id="path41"
     inkscape:connector-curvature="0"
     style="fill:none;stroke:#010101;stroke-miterlimit:10" /></svg>