<?xml version="1.0" encoding="UTF-8" standalone="no"?>
<!-- Generator: Adobe Illustrator 23.0.3, SVG Export Plug-In . SVG Version: 6.00 Build 0)  -->

<svg
   xmlns:dc="http://purl.org/dc/elements/1.1/"
   xmlns:cc="http://creativecommons.org/ns#"
   xmlns:rdf="http://www.w3.org/1999/02/22-rdf-syntax-ns#"
   xmlns:svg="http://www.w3.org/2000/svg"
   xmlns="http://www.w3.org/2000/svg"
   xmlns:sodipodi="http://sodipodi.sourceforge.net/DTD/sodipodi-0.dtd"
   xmlns:inkscape="http://www.inkscape.org/namespaces/inkscape"
   version="1.1"
   id="Layer_1"
   x="0px"
   y="0px"
   viewBox="0 0 128.5 160.46999"
   xml:space="preserve"
   sodipodi:docname="night-vision-camera-raspi.svg"
   width="128.5"
   height="160.46999"
   inkscape:version="0.92.2 5c3e80d, 2017-08-06"><metadata
     id="metadata208"><rdf:RDF><cc:Work
         rdf:about=""><dc:format>image/svg+xml</dc:format><dc:type
           rdf:resource="http://purl.org/dc/dcmitype/StillImage" /></cc:Work></rdf:RDF></metadata><defs
     id="defs206" /><sodipodi:namedview
     pagecolor="#ffffff"
     bordercolor="#666666"
     borderopacity="1"
     objecttolerance="10"
     gridtolerance="10"
     guidetolerance="10"
     inkscape:pageopacity="0"
     inkscape:pageshadow="2"
     inkscape:window-width="640"
     inkscape:window-height="480"
     id="namedview204"
     showgrid="false"
     inkscape:zoom="0.65555556"
     inkscape:cx="64.08"
     inkscape:cy="80.109993"
     inkscape:window-x="0"
     inkscape:window-y="0"
     inkscape:window-maximized="0"
     inkscape:current-layer="Layer_1" /><style
     type="text/css"
     id="style193">
	.st0{fill:#FFFFFF;stroke:#414142;stroke-miterlimit:10;}
</style><g
     id="g201"
     transform="translate(-151.92,-99.64)"><rect
       x="180.17"
       y="194.75999"
       class="st0"
       width="72"
       height="64.849998"
       id="rect195"
       style="fill:#ffffff;stroke:#414142;stroke-miterlimit:10" /><path
       class="st0"
       d="m 210.84,129.35 c 0,-16.13 -13.08,-29.21 -29.21,-29.21 -16.13,0 -29.21,13.08 -29.21,29.21 v 42.62 0 c 0,0.01 0,0.02 0,0.03 0,2.74 2.22,4.97 4.97,4.97 6.5,0 8.13,-5 12.12,-5 3.99,0 15.76,0 22.19,0 6.43,0 8.18,5 14.17,5 2.74,0 4.97,-2.22 4.97,-4.97 0,-0.01 0,-0.02 0,-0.03 v 0 z"
       id="path197"
       inkscape:connector-curvature="0"
       style="fill:#ffffff;stroke:#414142;stroke-miterlimit:10" /><path
       class="st0"
       d="m 279.92,129.35 c 0,-16.13 -13.08,-29.21 -29.21,-29.21 -16.13,0 -29.21,13.08 -29.21,29.21 v 42.62 0 c 0,0.01 0,0.02 0,0.03 0,2.74 2.22,4.97 4.97,4.97 6.5,0 8.13,-5 12.12,-5 3.99,0 15.76,0 22.19,0 6.43,0 8.18,5 14.17,5 2.74,0 4.97,-2.22 4.97,-4.97 0,-0.01 0,-0.02 0,-0.03 v 0 z"
       id="path199"
       inkscape:connector-curvature="0"
       style="fill:#ffffff;stroke:#414142;stroke-miterlimit:10" /></g></svg>