<?xml version="1.0" encoding="utf-8"?>
<!-- Generator: Adobe Illustrator 23.0.3, SVG Export Plug-In . SVG Version: 6.00 Build 0)  -->
<svg version="1.1" id="Layer_1" xmlns="http://www.w3.org/2000/svg" xmlns:xlink="http://www.w3.org/1999/xlink" x="0px" y="0px"
	 viewBox="0 0 266.78 201.67" style="enable-background:new 0 0 266.78 201.67;" xml:space="preserve">
<style type="text/css">
	.st0{fill:#FFFFFF;stroke:#231F20;stroke-width:0.25;stroke-miterlimit:10;}
	.st1{fill:none;stroke:#231F20;stroke-width:0.25;stroke-miterlimit:10;}
</style>
<circle class="st0" cx="131.43" cy="74.96" r="15.15"/>
<circle class="st0" cx="132.43" cy="56.4" r="3.42"/>
<path class="st1" d="M116.09,193c-47.7-17.29-102.74-41.47-104.92-75.33c-1.19-18.49,1.9-39.2,8.48-56.83
	c8.3-22.25,21.67-38.63,38.66-47.38C92.79-4.3,139.97-4.49,191.16,12.94c27.82,9.47,44.96,26.1,54.43,38.38
	c10.78,13.97,16.75,29.05,14.87,37.52c-2.74,12.34-27.31,57-74.58,60.38c-32.88,2.35-55.98-6.88-69.78-7.61
	c-3.92-0.21-7.02-0.37-9.01-0.37v-18c2.46,0,5.77,0.17,9.96,0.4c13.38,0.71,35.78,9.9,67.55,7.63
	c35.67-2.55,53.16-37.97,55.23-46.07c-0.02-6.42-11.99-40.76-54.47-55.22c-46.52-15.84-88.72-16.02-118.81-0.52
	C50.2,37.88,41.19,54.6,36.51,67.14c-5.72,15.33-8.41,33.33-7.38,49.37c0.64,9.93,12.79,22.01,34.22,34
	c21.42,11.99,47.67,21.5,58.88,25.56L116.09,193z"/>
</svg>
