<?xml version="1.0" encoding="utf-8"?>
<!-- Generator: Adobe Illustrator 22.1.0, SVG Export Plug-In . SVG Version: 6.00 Build 0)  -->
<svg version="1.1"
	 id="Layer_1" inkscape:version="0.92.2 5c3e80d, 2017-08-06" sodipodi:docname="drv8833-motor-driver.svg" xmlns:cc="http://creativecommons.org/ns#" xmlns:dc="http://purl.org/dc/elements/1.1/" xmlns:inkscape="http://www.inkscape.org/namespaces/inkscape" xmlns:rdf="http://www.w3.org/1999/02/22-rdf-syntax-ns#" xmlns:sodipodi="http://sodipodi.sourceforge.net/DTD/sodipodi-0.dtd" xmlns:svg="http://www.w3.org/2000/svg"
	 xmlns="http://www.w3.org/2000/svg" xmlns:xlink="http://www.w3.org/1999/xlink" x="0px" y="0px" viewBox="0 0 127.6 36.9"
	 style="enable-background:new 0 0 127.6 36.9;" xml:space="preserve">
<style type="text/css">
	.st0{fill:#FFFFFF;stroke:#000000;stroke-miterlimit:10;}
</style>
<sodipodi:namedview  bordercolor="#666666" borderopacity="1" gridtolerance="10" guidetolerance="10" id="namedview55" inkscape:current-layer="Layer_1" inkscape:cx="36.59" inkscape:cy="26.35" inkscape:pageopacity="0" inkscape:pageshadow="2" inkscape:window-height="480" inkscape:window-maximized="0" inkscape:window-width="640" inkscape:window-x="0" inkscape:window-y="0" inkscape:zoom="0.65555556" objecttolerance="10" pagecolor="#ffffff" showgrid="false">
	</sodipodi:namedview>
<path class="st0" d="M116.2,7h-9.9V4.2c0-1.6-1.3-2.8-2.8-2.8H80.6c-1.6,0-2.8,1.3-2.8,2.8V7H49.3V4.2c0-1.6-1.3-2.8-2.8-2.8H26.6
	c-1.6,0-2.8,1.3-2.8,2.8V7H11.3C5.1,7,0,12.1,0,18.3v0c0,6.2,5.1,11.3,11.3,11.3h12.4v2.8c0,1.6,1.3,2.8,2.8,2.8h19.8
	c1.6,0,2.8-1.3,2.8-2.8v-2.8h28.4v2.8c0,1.6,1.3,2.8,2.8,2.8h22.9c1.6,0,2.8-1.3,2.8-2.8v-2.8h9.9c6.2,0,11.3-5.1,11.3-11.3v0
	C127.6,12.1,122.5,7,116.2,7z M10.9,21.9c-1.7,0-3-1.3-3-3c0-1.7,1.3-3,3-3c1.7,0,3,1.3,3,3C13.9,20.6,12.6,21.9,10.9,21.9z
	 M117,21.9c-1.7,0-3-1.3-3-3c0-1.7,1.3-3,3-3s3,1.3,3,3C120,20.6,118.7,21.9,117,21.9z"/>
</svg>
